<svg width="20" height="20" viewBox="0 0 20 20" fill="none" xmlns="http://www.w3.org/2000/svg">
<path fill-rule="evenodd" clip-rule="evenodd" d="M10 0.75C15.108 0.75 19.25 4.891 19.25 10C19.25 15.108 15.108 19.25 10 19.25C4.891 19.25 0.75 15.108 0.75 10C0.75 4.892 4.892 0.75 10 0.75Z" fill="white" stroke="white" stroke-width="1.5" stroke-linecap="round" stroke-linejoin="round"/>
<path d="M10.5588 4.99912C10.5592 4.97237 10.5488 4.9466 10.53 4.92756C10.5112 4.90852 10.4856 4.8978 10.4588 4.8978H9.20312C9.17637 4.8978 9.15074 4.90852 9.13195 4.92756C9.11316 4.9466 9.10278 4.97237 9.10313 4.99912L9.19546 11.9991C9.19618 12.0538 9.24074 12.0978 9.29545 12.0978H10.3665C10.4212 12.0978 10.4657 12.0538 10.4665 11.9991L10.5588 4.99912ZM10.2979 15.2371L10.2985 15.2368L10.5465 14.8467L10.6319 14.8988C10.6321 14.8985 10.6322 14.8982 10.6324 14.898C10.7188 14.756 10.7619 14.5997 10.7619 14.4312C10.7619 14.1766 10.6696 13.9558 10.488 13.7742C10.3064 13.5926 10.0856 13.5002 9.83097 13.5002C9.57632 13.5002 9.35556 13.5926 9.17396 13.7742C8.99236 13.9558 8.9 14.1766 8.9 14.4312C8.9 14.6859 8.99236 14.9066 9.17396 15.0882C9.35556 15.2698 9.57632 15.3622 9.83097 15.3622C10.0016 15.3622 10.1581 15.321 10.2979 15.2371Z" fill="#EF2828" stroke="#EF2828" stroke-width="0.2" stroke-linejoin="round"/>
</svg>
