<svg width="32" height="32" viewBox="0 0 32 32" fill="none" xmlns="http://www.w3.org/2000/svg">
<path d="M18.22 20.5C20.4846 20.4481 22.6463 19.5442 24.2738 17.9686C25.9013 16.3931 26.8748 14.2617 27 12C28.2763 11.8717 29.4545 11.2578 30.2909 10.2853C31.1273 9.31273 31.558 8.05591 31.4937 6.77477C31.4295 5.49363 30.8754 4.28618 29.9459 3.40213C29.0164 2.51809 27.7828 2.02509 26.5 2.02509C25.2173 2.02509 23.9836 2.51809 23.0541 3.40213C22.1246 4.28618 21.5705 5.49363 21.5063 6.77477C21.4421 8.05591 21.8727 9.31273 22.7091 10.2853C23.5455 11.2578 24.7237 11.8717 26 12C25.8837 13.8136 25.1534 15.5336 23.9292 16.8768C22.7051 18.22 21.0601 19.1064 19.265 19.39C20.86 17.65 23.5 14.5 22.445 13.435L12.545 3.53502C12.0762 3.06635 11.4404 2.80306 10.7775 2.80306C10.1146 2.80306 9.47883 3.06635 9.01001 3.53502L8.30501 4.24002C8.02983 4.51659 7.8232 4.85373 7.70165 5.22445C7.5801 5.59518 7.54701 5.98921 7.60501 6.37502C7.22433 6.32121 6.83636 6.35592 6.47127 6.47646C6.10618 6.597 5.77382 6.80011 5.50001 7.07002L1.23001 11.31C0.997197 11.5423 0.812483 11.8181 0.686451 12.1219C0.560418 12.4256 0.495544 12.7512 0.495544 13.08C0.495544 13.4089 0.560418 13.7345 0.686451 14.0382C0.812483 14.3419 0.997197 14.6178 1.23001 14.85L11.13 24.75C11.216 24.8293 11.3168 24.8909 11.4266 24.9312C11.5364 24.9716 11.6531 24.9898 11.77 24.985C12.77 24.985 14.325 23.9 15.675 22.795C16.565 24.295 18.675 26.53 23.55 27.89C23.845 29.1 25.47 30 27.5 30C29.745 30 31.5 28.9 31.5 27.5C31.5 26.1 29.745 25 27.5 25C25.605 25 24.06 25.785 23.625 26.875C19.025 25.545 17.18 23.465 16.45 22.14C17.33 21.37 18 20.695 18.205 20.5H18.22ZM24.05 10.155L24.38 9.83002L23.67 9.12002L23.345 9.45002C22.9039 8.88506 22.624 8.21122 22.535 7.50002H23V6.50002H22.535C22.624 5.78882 22.9039 5.11499 23.345 4.55002L23.67 4.88002L24.38 4.17002L24.05 3.84502C24.615 3.40394 25.2888 3.12404 26 3.03502V3.50002H27V3.03502C27.7112 3.12404 28.3851 3.40394 28.95 3.84502L28.62 4.17002L29.33 4.88002L29.655 4.55002C30.0961 5.11499 30.376 5.78882 30.465 6.50002H30V7.50002H30.465C30.376 8.21122 30.0961 8.88506 29.655 9.45002L29.33 9.12002L28.62 9.83002L28.95 10.155C28.3851 10.5961 27.7112 10.876 27 10.965V10.5H26V10.965C25.2888 10.876 24.615 10.5961 24.05 10.155ZM27.5 26C29.27 26 30.5 26.79 30.5 27.5C30.5 28.21 29.27 29 27.5 29C25.73 29 24.5 28.21 24.5 27.5C24.5 26.79 25.73 26 27.5 26ZM9.00001 4.95002L9.71001 4.24002C9.99126 3.95912 10.3725 3.80134 10.77 3.80134C11.1675 3.80134 11.5488 3.95912 11.83 4.24002L21 13.38C19.7655 13.9656 18.6234 14.7286 17.61 15.645L9.00001 7.07002C8.71911 6.78877 8.56133 6.40752 8.56133 6.01002C8.56133 5.61252 8.71911 5.23127 9.00001 4.95002ZM11.07 23.28L1.94001 14.14C1.65911 13.8588 1.50133 13.4775 1.50133 13.08C1.50133 12.6825 1.65911 12.3013 1.94001 12.02L6.18001 7.77502C6.31937 7.63518 6.48496 7.52423 6.66729 7.44852C6.84961 7.37281 7.04509 7.33384 7.24251 7.33384C7.43993 7.33384 7.63541 7.37281 7.81774 7.44852C8.00007 7.52423 8.16566 7.63518 8.30501 7.77502L16.805 16.305C16.075 16.96 15.52 17.51 15.35 17.675C14.93 18.12 11.865 21.235 11.08 23.28H11.07ZM11.88 24C11.96 23.385 13.175 21.29 16.08 18.385C18.985 15.48 21.08 14.26 21.695 14.18C21.62 14.795 20.405 16.89 17.495 19.8C14.585 22.71 12.5 23.92 11.88 24Z" fill="#E59A30"/>
<path d="M28 7C27.9991 6.69053 27.9026 6.3889 27.7235 6.13647C27.5445 5.88404 27.2918 5.69316 27 5.59V4.5H26V5.59C25.7406 5.68173 25.5114 5.84305 25.3375 6.05632C25.1636 6.26959 25.0517 6.52659 25.0141 6.79918C24.9765 7.07177 25.0146 7.34946 25.1242 7.60185C25.2338 7.85425 25.4108 8.07162 25.6357 8.23017C25.8606 8.38873 26.1248 8.48237 26.3993 8.50083C26.6739 8.5193 26.9482 8.46188 27.1924 8.33487C27.4365 8.20785 27.6409 8.01614 27.7834 7.7807C27.9258 7.54526 28.0008 7.27518 28 7ZM26 7C26 6.90111 26.0293 6.80444 26.0843 6.72221C26.1392 6.63999 26.2173 6.5759 26.3087 6.53806C26.4 6.50022 26.5006 6.49031 26.5975 6.50961C26.6945 6.5289 26.7836 6.57652 26.8535 6.64645C26.9235 6.71637 26.9711 6.80546 26.9904 6.90245C27.0097 6.99945 26.9998 7.09998 26.9619 7.19134C26.9241 7.2827 26.86 7.36079 26.7778 7.41573C26.6956 7.47068 26.5989 7.5 26.5 7.5C26.3674 7.5 26.2402 7.44732 26.1464 7.35355C26.0527 7.25979 26 7.13261 26 7Z" fill="#E59A30"/>
</svg>
