<svg xmlns="http://www.w3.org/2000/svg" width="18" height="15" viewBox="0 0 18 15" fill="none">
  <path d="M16.3333 8.33335H14.176L12.31 1.4907C12.2293 1.19535 11.9567 0.996698 11.6513 1.00004C11.3447 1.00739 11.0827 1.2227 11.0153 1.52139L8.85 11.2654L6.294 4.1087C6.19666 3.83604 5.93734 3.66004 5.64534 3.6667C5.50414 3.67125 5.36802 3.7205 5.2566 3.80736C5.14518 3.89422 5.0642 4.01421 5.02534 4.15004L3.83066 8.33335H1.66666C1.298 8.33335 1 8.63201 1 9.00001C1 9.36801 1.298 9.66667 1.66666 9.66667H4.33331C4.63066 9.66667 4.89266 9.46932 4.97397 9.18267L5.73663 6.51267L8.37262 13.8907C8.46728 14.1573 8.71928 14.3333 8.99997 14.3333C9.01397 14.3333 9.02731 14.3327 9.04131 14.332C9.18556 14.3229 9.32296 14.2672 9.43284 14.1733C9.54273 14.0794 9.61916 13.9524 9.65066 13.8113L11.732 4.44267L13.0233 9.17532C13.1027 9.46532 13.366 9.66667 13.6667 9.66667H16.3333C16.702 9.66667 17 9.36801 17 9.00001C17 8.63201 16.702 8.33335 16.3333 8.33335Z" fill="#DA474A" stroke="#DA474A"/>
  </svg>