<svg width="28" height="36" viewBox="0 0 28 36" fill="none" xmlns="http://www.w3.org/2000/svg">
<path d="M22.3122 12.3638L18.6176 11.4165L20.4193 4.98255C20.6118 4.2951 20.1987 3.58967 19.4985 3.41015L16.3968 2.6149C15.6966 2.43538 14.9703 2.84869 14.7778 3.53613L12.9761 9.9701L9.28136 9.02282C7.73174 8.62551 6.12445 9.54018 5.69838 11.0617L3.28544 19.6784C2.94093 20.9086 2.72708 22.1764 2.64988 23.4464L2.33568 28.6134C2.24317 30.1351 3.26544 31.5188 4.76655 31.9037L14.266 34.3393C15.7671 34.7241 17.3755 34.0148 18.0905 32.6528L20.5183 28.0278C21.1161 26.8886 21.5915 25.693 21.9369 24.4604L24.3499 15.8437C24.7759 14.3222 23.8618 12.7611 22.3122 12.3638ZM15.6762 3.76648C15.7034 3.66981 15.7685 3.58715 15.8573 3.53664C15.9461 3.48612 16.0513 3.47187 16.1498 3.49701L19.2516 4.29227C19.35 4.31763 19.4337 4.38029 19.4842 4.46652C19.5347 4.55275 19.5479 4.6555 19.5209 4.75222L17.7192 11.1862L13.8745 10.2005L15.6762 3.7665L15.6762 3.76648ZM8.07933 31.8076L8.35528 30.8222C8.37546 30.7505 8.42381 30.6891 8.48972 30.6516C8.55563 30.6141 8.63371 30.6035 8.70684 30.6222L11.5232 31.3443C11.5963 31.3631 11.6584 31.4096 11.6959 31.4736C11.7334 31.5376 11.7432 31.6139 11.7231 31.6857L11.4472 32.6711L8.07933 31.8076ZM21.0385 24.2301C20.7111 25.3991 20.2576 26.5394 19.6906 27.6196L17.2628 32.2446C16.7487 33.2239 15.5923 33.7339 14.513 33.4571L12.3455 32.9014L12.6214 31.916C12.7995 31.2803 12.4176 30.6281 11.7702 30.4621L8.95379 29.7401C8.30637 29.5741 7.63485 29.9562 7.45686 30.5919L7.18091 31.5773L5.0135 31.0216C3.93421 30.7449 3.19917 29.75 3.26572 28.6559L3.57998 23.489C3.65376 22.2798 3.85615 21.0799 4.18387 19.9087L6.59681 11.292C6.88669 10.2569 7.98014 9.63463 9.03441 9.90493L22.0652 13.2459C23.1195 13.5162 23.7413 14.5782 23.4514 15.6134L21.0385 24.2301Z" fill="#C04A82"/>
<path d="M21.8962 13.9395L8.82691 10.5907C8.16881 10.4221 7.48621 10.8103 7.30528 11.456L4.88521 20.0929C4.63369 20.9906 4.45755 21.9156 4.36167 22.8421C4.29865 23.4507 4.69171 24.0048 5.29617 24.1597L7.4675 24.716C7.7163 24.7798 7.97345 24.6336 8.04188 24.3894C8.1103 24.1452 7.96404 23.8956 7.71524 23.8319L5.54392 23.2755C5.38071 23.2337 5.27451 23.0852 5.29133 22.9224C5.38223 22.0452 5.54777 21.176 5.78623 20.3238L8.20629 11.6869C8.22769 11.6108 8.27897 11.5458 8.34888 11.506C8.41879 11.4663 8.50161 11.4551 8.57916 11.4749L21.6485 14.8237C21.726 14.8436 21.7919 14.8929 21.8316 14.9608C21.8714 15.0286 21.8818 15.1095 21.8606 15.1856L19.4405 23.8225C19.2027 24.671 18.8898 25.5077 18.5104 26.3095C18.4399 26.4586 18.2702 26.5364 18.107 26.4946L9.81965 24.3711C9.57085 24.3073 9.3137 24.4535 9.24527 24.6977C9.17685 24.9419 9.32311 25.1915 9.57191 25.2553L17.8593 27.3787C18.4637 27.5336 19.0939 27.2416 19.3576 26.6844C19.7595 25.8348 20.0886 24.9547 20.3415 24.0533L22.7616 15.4164C22.9425 14.7707 22.5543 14.1081 21.8962 13.9395Z" fill="#C04A82"/>
<path d="M13.1135 19.504C13.3293 18.7325 13.0629 17.1962 12.3215 14.9379C12.2674 14.7723 12.1717 14.6231 12.0431 14.5039C11.9144 14.3847 11.7569 14.2993 11.585 14.2555C11.2346 14.1655 10.8629 14.2547 10.5907 14.4938C8.76951 16.0947 7.73661 17.2976 7.52075 18.069C7.0968 19.5841 8.00629 21.1388 9.54818 21.5344C11.0901 21.93 12.6895 21.0192 13.1135 19.504ZM9.79482 20.6529C8.74754 20.3842 8.12978 19.3283 8.41776 18.2992C8.57556 17.7352 9.61833 16.5648 11.2072 15.1682C11.257 15.1245 11.3107 15.1298 11.3383 15.1369C11.3658 15.144 11.4152 15.1651 11.4355 15.2268C12.0822 17.197 12.3742 18.71 12.2164 19.2738C11.9285 20.303 10.8422 20.9217 9.79482 20.6529ZM9.27074 25.9259L7.0781 25.3633C6.25866 25.153 5.40872 25.637 5.18338 26.4423C4.95805 27.2476 5.44142 28.0736 6.26086 28.2839L8.4535 28.8465C9.27295 29.0568 10.1229 28.5728 10.3482 27.7675C10.5735 26.9622 10.0902 26.1361 9.27074 25.9259ZM8.70014 27.9651L6.5075 27.4025C6.18267 27.3191 5.99107 26.9916 6.08039 26.6724C6.16971 26.3532 6.50662 26.1614 6.83146 26.2447L9.0241 26.8073C9.34893 26.8907 9.54053 27.2181 9.45121 27.5373C9.36189 27.8565 9.02498 28.0484 8.70014 27.9651ZM15.6788 27.5701L13.4861 27.0075C12.6666 26.7972 11.8167 27.2812 11.5913 28.0865C11.366 28.8918 11.8494 29.7179 12.6688 29.9281L14.8615 30.4907C15.681 30.701 16.5309 30.217 16.7562 29.4117C16.9816 28.6064 16.4982 27.7803 15.6788 27.5701ZM15.1082 29.6093L12.9155 29.0467C12.5906 28.9633 12.399 28.6358 12.4883 28.3166C12.5777 27.9974 12.9146 27.8056 13.2394 27.8889L15.4321 28.4515C15.7569 28.5349 15.9485 28.8624 15.8592 29.1816C15.7699 29.5008 15.433 29.6926 15.1082 29.6093ZM15.8061 19.7944C16.6291 20.0055 17.4827 19.5194 17.709 18.7107L18.0294 17.5657C18.2557 16.7569 17.7703 15.9272 16.9473 15.716C16.1243 15.5049 15.2707 15.991 15.0443 16.7997L14.7239 17.9448C14.4977 18.7535 14.9832 19.5832 15.8061 19.7944ZM15.9414 17.0299C16.0316 16.7072 16.3722 16.5132 16.7006 16.5975C17.029 16.6817 17.2226 17.0128 17.1323 17.3355L16.8119 18.4805C16.7216 18.8032 16.3811 18.9972 16.0527 18.9129C15.7243 18.8286 15.5307 18.4976 15.621 18.1749L15.9414 17.0299ZM19.6494 17.3541C19.8972 17.4177 20.1531 17.2719 20.2212 17.0284C20.2894 16.785 20.1438 16.5362 19.8961 16.4726L19.3881 16.3423C19.1404 16.2787 18.8844 16.4245 18.8163 16.668C18.7482 16.9114 18.8937 17.1602 19.1415 17.2238L19.6494 17.3541ZM14.2884 21.2193L18.2812 22.2438C18.5289 22.3073 18.7849 22.1616 18.853 21.9181C18.9211 21.6747 18.7755 21.4259 18.5278 21.3623L14.535 20.3378C14.2874 20.2743 14.0313 20.42 13.9632 20.6635C13.8951 20.9069 14.0407 21.1557 14.2884 21.2193ZM13.8761 22.6929L17.8688 23.7174C18.1166 23.7809 18.3725 23.6352 18.4406 23.3917C18.5088 23.1483 18.3632 22.8995 18.1155 22.8359L14.1227 21.8114C13.875 21.7479 13.619 21.8936 13.5509 22.1371C13.4828 22.3805 13.6284 22.6293 13.8761 22.6929ZM17.3716 5.04819C17.1244 4.98478 16.869 5.13023 16.801 5.3731C16.7331 5.61597 16.8783 5.86423 17.1255 5.92764C17.3726 5.99106 17.628 5.84561 17.696 5.60274C17.7122 5.54499 17.7166 5.48484 17.709 5.42572C17.7015 5.36659 17.6821 5.30966 17.652 5.25816C17.6218 5.20667 17.5816 5.16162 17.5334 5.12559C17.4853 5.08956 17.4303 5.06326 17.3716 5.04819Z" fill="#C04A82"/>
</svg>
