<svg width="24" height="25" viewBox="0 0 24 25" fill="none" xmlns="http://www.w3.org/2000/svg">
<path d="M13.0012 14.495V18.4925H16.9987V14.495H13.0012ZM4.99872 10.4975H19.0012V20.495H5.00622V10.4975H4.99872ZM4.99872 6.5H19.0012V8.50249H5.00622V6.5H4.99872ZM5.99622 2.82499V4.49749H4.99872C3.89622 4.49749 2.99622 5.3975 2.99622 6.5V20.5025C2.99622 21.605 3.89622 22.505 4.99872 22.505H19.0012C20.1037 22.505 21.0037 21.605 21.0037 20.5025V6.5C21.0037 5.3975 20.1037 4.49749 19.0012 4.49749H18.0037V2.82499C18.0037 2.64499 17.8537 2.495 17.6737 2.495H16.3312C16.1512 2.495 16.0012 2.64499 16.0012 2.82499V4.49749H8.00622V2.82499C8.00622 2.64499 7.85622 2.495 7.67622 2.495H6.33372C6.15372 2.495 6.00372 2.64499 6.00372 2.82499H5.99622Z" fill="white"/>
</svg>
