<svg width="34" height="14" viewBox="0 0 34 14" fill="none" xmlns="http://www.w3.org/2000/svg">
<path d="M33.5816 9.65584L33.2516 11.3842C32.945 13.0025 31.4316 14.0892 29.7183 13.9242L26.3066 13.5942C24.8216 13.4508 23.555 12.3942 23.1766 10.9842L22.125 7.05918C20.5666 6.42084 18.85 6.12918 16.975 6.18251C15.1691 6.22187 13.3896 6.62312 11.7416 7.36251L11.0883 11.0375C10.8416 12.4308 9.69329 13.4692 8.23829 13.6158L4.84662 13.9558C3.15329 14.1258 1.53162 13.0492 1.05162 11.4392L0.534957 9.70917C0.0216233 7.99084 0.479956 6.18084 1.73662 4.95918C4.70496 2.07584 9.65329 0.629177 16.5816 0.619177C23.5216 0.610843 28.6233 2.04751 31.89 4.93251C33.265 6.14584 33.9066 7.94251 33.5816 9.65584V9.65584Z" fill="white"/>
</svg>
