<svg width="24" height="24" viewBox="0 0 24 24" fill="none" xmlns="http://www.w3.org/2000/svg">
<path d="M0.75 19.4915C0.948912 19.4915 1.13968 19.4125 1.28033 19.2719C1.42098 19.1312 1.5 18.9404 1.5 18.7415V6.74153C1.5 6.54262 1.57902 6.35186 1.71967 6.2112C1.86032 6.07055 2.05109 5.99153 2.25 5.99153H15.03C15.2289 5.99153 15.4197 5.91252 15.5603 5.77186C15.701 5.63121 15.78 5.44045 15.78 5.24153C15.78 5.04262 15.701 4.85186 15.5603 4.7112C15.4197 4.57055 15.2289 4.49153 15.03 4.49153H2.25C1.0095 4.49153 0 5.50103 0 6.74153V18.7415C0 18.9404 0.0790176 19.1312 0.21967 19.2719C0.360322 19.4125 0.551088 19.4915 0.75 19.4915ZM22.914 6.07103L18 8.52803V7.05203L23.781 1.27103C23.9176 1.12958 23.9932 0.940131 23.9915 0.743483C23.9898 0.546835 23.9109 0.358726 23.7719 0.21967C23.6328 0.0806139 23.4447 0.00173717 23.2481 2.8352e-05C23.0514 -0.00168046 22.862 0.0739153 22.7205 0.210534L0.2205 22.7105C0.0838815 22.852 0.00828565 23.0414 0.00999447 23.2381C0.0117033 23.4347 0.09058 23.6228 0.229636 23.7619C0.368692 23.901 0.556802 23.9798 0.753449 23.9815C0.950097 23.9832 1.13955 23.9077 1.281 23.771L5.5605 19.4915H15.75C16.9905 19.4915 18 18.482 18 17.2415V15.455L22.914 17.912C23.0283 17.9693 23.1554 17.9964 23.2832 17.9908C23.411 17.9851 23.5352 17.9469 23.644 17.8797C23.7528 17.8125 23.8427 17.7186 23.905 17.6069C23.9673 17.4952 24 17.3694 24 17.2415V6.74153C24 6.61364 23.9673 6.48787 23.905 6.37617C23.8427 6.26448 23.7528 6.17058 23.644 6.10339C23.5352 6.0362 23.411 5.99796 23.2832 5.99229C23.1554 5.98663 23.0283 6.01374 22.914 6.07103ZM15.75 17.9915H7.0605L16.5 8.55203V17.2415C16.5 17.4404 16.421 17.6312 16.2803 17.7719C16.1397 17.9125 15.9489 17.9915 15.75 17.9915ZM22.5 16.028L18 13.778V10.205L22.5 7.95503V16.028Z" fill="white"/>
</svg>
