<svg width="20" height="20" viewBox="0 0 20 20" fill="none" xmlns="http://www.w3.org/2000/svg">
<path opacity="0.24" d="M10 0C4.47 0 0 4.47 0 10C0 15.53 4.47 20 10 20C15.53 20 20 15.53 20 10C20 4.47 15.53 0 10 0ZM14.3 14.3C13.91 14.69 13.28 14.69 12.89 14.3L10 11.41L7.11 14.3C6.72 14.69 6.09 14.69 5.7 14.3C5.31 13.91 5.31 13.28 5.7 12.89L8.59 10L5.7 7.11C5.31 6.72 5.31 6.09 5.7 5.7C6.09 5.31 6.72 5.31 7.11 5.7L10 8.59L12.89 5.7C13.28 5.31 13.91 5.31 14.3 5.7C14.69 6.09 14.69 6.72 14.3 7.11L11.41 10L14.3 12.89C14.68 13.27 14.68 13.91 14.3 14.3Z" fill="#333333"/>
<path d="M14.3007 14.3002C13.9107 14.6902 13.2807 14.6902 12.8907 14.3002L10.0007 11.4102L7.1107 14.3002C6.7207 14.6902 6.0907 14.6902 5.7007 14.3002C5.3107 13.9102 5.3107 13.2802 5.7007 12.8902L8.5907 10.0002L5.7007 7.11021C5.3107 6.72021 5.3107 6.09021 5.7007 5.70021C6.0907 5.31021 6.7207 5.31021 7.1107 5.70021L10.0007 8.59022L12.8907 5.70021C13.2807 5.31021 13.9107 5.31021 14.3007 5.70021C14.6907 6.09021 14.6907 6.72021 14.3007 7.11021L11.4107 10.0002L14.3007 12.8902C14.6807 13.2702 14.6807 13.9102 14.3007 14.3002Z" fill="white"/>
</svg>
