<svg width="24" height="23" viewBox="0 0 24 23" fill="none" xmlns="http://www.w3.org/2000/svg">
<path d="M5.6 22.4C5.38789 22.3998 5.18453 22.3154 5.03455 22.1655C4.88457 22.0155 4.80021 21.8121 4.8 21.6V17.6H2.4C1.0768 17.6 0 16.5232 0 15.2V2.4C0 1.0768 1.0768 0 2.4 0H21.6C22.9232 0 24 1.0768 24 2.4V15.2C24 16.5232 22.9232 17.6 21.6 17.6H11.8808L6.1 22.2248C5.95813 22.3384 5.78175 22.4002 5.6 22.4ZM2.4 1.6C1.9584 1.6 1.6 1.9592 1.6 2.4V15.2C1.6 15.6408 1.9584 16 2.4 16H5.6C5.81217 16 6.01566 16.0843 6.16569 16.2343C6.31571 16.3843 6.4 16.5878 6.4 16.8V19.936L11.1 16.1752C11.2419 16.0617 11.4183 15.9999 11.6 16H21.6C22.0416 16 22.4 15.6408 22.4 15.2V2.4C22.4 1.9592 22.0416 1.6 21.6 1.6H2.4Z" fill="white"/>
<path d="M18.4 7.9999H5.60005C5.38788 7.9999 5.18439 7.91562 5.03436 7.76559C4.88433 7.61556 4.80005 7.41208 4.80005 7.1999C4.80005 6.98773 4.88433 6.78425 5.03436 6.63422C5.18439 6.48419 5.38788 6.3999 5.60005 6.3999H18.4C18.6122 6.3999 18.8157 6.48419 18.9657 6.63422C19.1158 6.78425 19.2 6.98773 19.2 7.1999C19.2 7.41208 19.1158 7.61556 18.9657 7.76559C18.8157 7.91562 18.6122 7.9999 18.4 7.9999ZM12 11.1999H5.60005C5.38788 11.1999 5.18439 11.1156 5.03436 10.9656C4.88433 10.8156 4.80005 10.6121 4.80005 10.3999C4.80005 10.1877 4.88433 9.98425 5.03436 9.83422C5.18439 9.68419 5.38788 9.5999 5.60005 9.5999H12C12.2122 9.5999 12.4157 9.68419 12.5657 9.83422C12.7158 9.98425 12.8 10.1877 12.8 10.3999C12.8 10.6121 12.7158 10.8156 12.5657 10.9656C12.4157 11.1156 12.2122 11.1999 12 11.1999Z" fill="white"/>
</svg>
