<svg width="24" height="25" viewBox="0 0 24 25" fill="none" xmlns="http://www.w3.org/2000/svg">
<path fill-rule="evenodd" clip-rule="evenodd" d="M21.7048 5.09154C22.0164 3.68588 20.7092 2.41748 19.2939 2.82708L3.63738 7.38281L3.48628 7.43304C2.0167 7.98611 1.79121 10.0329 3.16768 10.8802L9.64322 14.8661L13.539 21.3202L13.6265 21.4534C14.5398 22.7329 16.562 22.423 17.0231 20.872L21.6682 5.23251L21.7048 5.09154ZM19.7849 4.25323C20.0737 4.22222 20.3204 4.50312 20.2305 4.80473L15.5852 20.4448L15.5547 20.5214C15.4096 20.8069 14.9988 20.836 14.8232 20.5451L11.1352 14.4361L16.3877 9.14975L16.4601 9.06539C16.6769 8.77106 16.6513 8.35447 16.3842 8.0891L16.2998 8.01676C16.0055 7.79988 15.5889 7.82548 15.3235 8.09263L10.0782 13.3721L3.95398 9.60284L3.88786 9.55318C3.65003 9.33652 3.73008 8.91781 4.05598 8.82322L19.7119 4.26765L19.7849 4.25323Z" fill="#0774E4"/>
</svg>
