<svg width="24" height="24" viewBox="0 0 24 24" fill="none" xmlns="http://www.w3.org/2000/svg">
<path d="M19.2361 1.81185H16.3053L17.0274 1.08976C17.2769 0.840219 17.2769 0.436702 17.0274 0.187158C16.7778 -0.0623859 16.3743 -0.0623859 16.1248 0.187158L14.3196 1.99768C14.1974 2.11979 14.1337 2.27908 14.1337 2.44898C14.1337 2.61888 14.2028 2.77816 14.3196 2.90028L16.1301 4.7108C16.2522 4.83292 16.4168 4.89663 16.5814 4.89663C16.746 4.89663 16.9053 4.83292 17.0327 4.7108C17.2822 4.46126 17.2822 4.05774 17.0327 3.8082L16.3106 3.08611H19.2414C21.1475 3.08611 22.6926 4.63647 22.6926 6.53725V8.67695C22.6926 9.02738 22.9793 9.31409 23.3297 9.31409C23.6801 9.31409 23.9668 9.02738 23.9668 8.67695V6.53725C23.9668 3.93031 21.843 1.81185 19.2361 1.81185ZM23.2819 12.2608H12.817C12.4666 12.2608 12.1799 12.5475 12.1799 12.898V23.3629C12.1799 23.7133 12.4666 24 12.817 24H23.2819C23.6323 24 23.919 23.7133 23.919 23.3629V12.898C23.919 12.5422 23.6323 12.2608 23.2819 12.2608ZM22.6448 22.7257H13.4541V13.5351H22.6448V22.7257ZM7.83674 19.2905C7.58719 19.041 7.18367 19.041 6.93413 19.2905C6.68459 19.5401 6.68459 19.9436 6.93413 20.1931L7.65621 20.9152H4.7254C2.81931 20.9152 1.27427 19.3649 1.27427 17.4641V15.3244C1.27427 14.974 0.987556 14.6872 0.637133 14.6872C0.28671 14.6872 0 14.974 0 15.3244V17.4641C0 20.071 2.11847 22.1895 4.7254 22.1895H7.65621L6.93413 22.9116C6.68459 23.1611 6.68459 23.5646 6.93413 23.8142C7.05625 23.9363 7.22084 24 7.38543 24C7.55003 24 7.70931 23.9363 7.83674 23.8142L9.64725 22.0037C9.8968 21.7541 9.8968 21.3506 9.64725 21.101L7.83674 19.2905ZM0.684918 1.27559C0.85482 1.27559 1.01941 1.20657 1.13622 1.08976C1.25303 0.972955 1.32205 0.808362 1.32205 0.63846C1.32205 0.473868 1.25303 0.303965 1.13622 0.187158C1.01941 0.0703501 0.85482 0.00132735 0.684918 0.00132735C0.515016 0.00132735 0.350423 0.0703501 0.233615 0.187158C0.116808 0.303965 0.047785 0.468558 0.047785 0.63846C0.047785 0.808362 0.116808 0.972955 0.233615 1.08976C0.355733 1.20657 0.515016 1.27559 0.684918 1.27559ZM5.92003 1.27559C6.27045 1.27559 6.55716 0.988883 6.55716 0.63846C6.55716 0.288037 6.27045 0.00132735 5.92003 0.00132735C5.5696 0.00132735 5.28289 0.288037 5.28289 0.63846C5.28289 0.988883 5.56429 1.27559 5.92003 1.27559ZM3.30247 1.27559C3.6529 1.27559 3.93961 0.988883 3.93961 0.63846C3.93961 0.288037 3.6529 0.00132735 3.30247 0.00132735C2.95205 0.00132735 2.66534 0.288037 2.66534 0.63846C2.66534 0.988883 2.95205 1.27559 3.30247 1.27559ZM8.53227 1.27559C8.88269 1.27559 9.1694 0.988883 9.1694 0.63846C9.1694 0.288037 8.88269 0.00132735 8.53227 0.00132735C8.18185 0.00132735 7.89514 0.288037 7.89514 0.63846C7.89514 0.988883 8.18185 1.27559 8.53227 1.27559ZM11.1498 0.00132735C10.9852 0.00132735 10.8153 0.0703501 10.6985 0.187158C10.5817 0.303965 10.5127 0.468558 10.5127 0.63846C10.5127 0.808362 10.5817 0.972955 10.6985 1.08976C10.8153 1.20657 10.9799 1.27559 11.1498 1.27559C11.3197 1.27559 11.4843 1.20657 11.6011 1.08976C11.7179 0.972955 11.787 0.808362 11.787 0.63846C11.787 0.468558 11.7179 0.303965 11.6011 0.187158C11.4843 0.0703501 11.3197 0.00132735 11.1498 0.00132735ZM11.1498 7.85399C10.7994 7.85399 10.5127 8.1407 10.5127 8.49112C10.5127 8.84155 10.7994 9.12826 11.1498 9.12826C11.5002 9.12826 11.787 8.84155 11.787 8.49112C11.787 8.13539 11.5056 7.85399 11.1498 7.85399ZM11.1498 5.23644C10.7994 5.23644 10.5127 5.52315 10.5127 5.87357C10.5127 6.22399 10.7994 6.5107 11.1498 6.5107C11.5002 6.5107 11.787 6.22399 11.787 5.87357C11.787 5.51784 11.5056 5.23644 11.1498 5.23644ZM11.1498 2.61888C10.7994 2.61888 10.5127 2.90559 10.5127 3.25601C10.5127 3.60644 10.7994 3.89315 11.1498 3.89315C11.5002 3.89315 11.787 3.60644 11.787 3.25601C11.787 2.90559 11.5056 2.61888 11.1498 2.61888ZM11.1498 10.4662C10.9799 10.4662 10.8153 10.5353 10.6985 10.6521C10.5817 10.7689 10.5127 10.9335 10.5127 11.1034C10.5127 11.268 10.5817 11.4379 10.6985 11.5547C10.8153 11.6715 10.9799 11.7405 11.1498 11.7405C11.3197 11.7405 11.4843 11.6715 11.6011 11.5547C11.7179 11.4379 11.787 11.2733 11.787 11.1034C11.787 10.9335 11.7179 10.7689 11.6011 10.6521C11.4844 10.5353 11.3197 10.4662 11.1498 10.4662ZM8.53227 11.7405C8.88269 11.7405 9.1694 11.4538 9.1694 11.1034C9.1694 10.7529 8.88269 10.4662 8.53227 10.4662C8.18185 10.4662 7.89514 10.7529 7.89514 11.1034C7.89514 11.4591 8.18185 11.7405 8.53227 11.7405ZM5.92003 11.7405C6.27045 11.7405 6.55716 11.4538 6.55716 11.1034C6.55716 10.7529 6.27045 10.4662 5.92003 10.4662C5.5696 10.4662 5.28289 10.7529 5.28289 11.1034C5.28289 11.4591 5.56429 11.7405 5.92003 11.7405ZM3.30247 11.7405C3.6529 11.7405 3.93961 11.4538 3.93961 11.1034C3.93961 10.7529 3.6529 10.4662 3.30247 10.4662C2.95205 10.4662 2.66534 10.7529 2.66534 11.1034C2.66534 11.4591 2.95205 11.7405 3.30247 11.7405ZM0.684918 11.7405C0.85482 11.7405 1.01941 11.6715 1.13622 11.5547C1.25303 11.4379 1.32205 11.2733 1.32205 11.1034C1.32205 10.9335 1.25303 10.7689 1.13622 10.6521C1.01941 10.5353 0.85482 10.4662 0.684918 10.4662C0.515016 10.4662 0.350423 10.5353 0.233615 10.6521C0.116808 10.7689 0.047785 10.9335 0.047785 11.1034C0.047785 11.268 0.116808 11.4379 0.233615 11.5547C0.355733 11.6715 0.515016 11.7405 0.684918 11.7405ZM0.684918 9.12826C1.03534 9.12826 1.32205 8.84155 1.32205 8.49112C1.32205 8.1407 1.03534 7.85399 0.684918 7.85399C0.334495 7.85399 0.047785 8.1407 0.047785 8.49112C0.047785 8.84155 0.334495 9.12826 0.684918 9.12826ZM0.684918 6.5107C1.03534 6.5107 1.32205 6.22399 1.32205 5.87357C1.32205 5.52315 1.03534 5.23644 0.684918 5.23644C0.334495 5.23644 0.047785 5.52315 0.047785 5.87357C0.047785 6.22399 0.334495 6.5107 0.684918 6.5107ZM0.684918 3.89315C1.03534 3.89315 1.32205 3.60644 1.32205 3.25601C1.32205 2.90559 1.03534 2.61888 0.684918 2.61888C0.334495 2.61888 0.047785 2.90559 0.047785 3.25601C0.047785 3.60644 0.334495 3.89315 0.684918 3.89315Z" fill="white"/>
</svg>
