<svg width="117" height="122" viewBox="0 0 117 122" fill="none" xmlns="http://www.w3.org/2000/svg">
<path d="M46.7964 62C44.8558 65.4274 41.4301 67.7037 37.5278 67.7037C33.6256 67.7037 30.1999 65.4274 28.2593 62" stroke="#9CA7AC" stroke-width="4" stroke-linecap="round"/>
<path d="M75.3147 62C73.3741 65.4274 69.9484 67.7037 66.0461 67.7037C62.1439 67.7037 58.7182 65.4274 56.7776 62" stroke="#9CA7AC" stroke-width="4" stroke-linecap="round"/>
<circle cx="52.4998" cy="86.2407" r="2.85185" fill="#9CA7AC"/>
<path d="M92.6865 2L106.418 2L92.6948 19.1642H106.418" stroke="#EDEFF0" stroke-width="4" stroke-linecap="round" stroke-linejoin="round"/>
<path d="M106.418 32.8956L115 32.8956L106.423 43.1941H115" stroke="#EDEFF0" stroke-width="4" stroke-linecap="round" stroke-linejoin="round"/>
<path d="M100.499 50.5438C97.901 44.3706 94.1765 38.8298 89.4289 34.0706C84.7145 29.339 79.1179 25.578 72.956 23.0004C66.6335 20.345 59.9202 19 53 19H52.7701C45.8039 19.0345 39.0561 20.414 32.7106 23.1269C26.6015 25.7309 21.0573 29.4986 16.3872 34.2201C11.6856 38.9677 7.99555 44.4856 5.44357 50.6357C2.79963 57.0042 1.46617 63.7751 1.50065 70.7414C1.53966 78.7247 3.42834 86.5904 7.01844 93.721V111.194C7.01844 112.597 7.57555 113.942 8.56722 114.933C9.55889 115.925 10.9039 116.482 12.3063 116.482H29.7908C36.9213 120.072 44.7869 121.961 52.7701 122H53.0115C59.8972 122 66.5761 120.667 72.864 118.057C78.9948 115.51 84.5706 111.793 89.2795 107.113C94.0271 102.412 97.7631 96.9167 100.373 90.7896C103.085 84.4441 104.465 77.6962 104.499 70.7299C104.534 63.7291 103.177 56.9353 100.499 50.5438ZM83.1294 100.894C75.0712 108.872 64.3804 113.263 53 113.263H52.8046C45.8729 113.229 38.9871 111.505 32.9061 108.263L31.9404 107.746H15.7549V91.5598L15.2376 90.5942C11.9959 84.5131 10.2716 77.6272 10.2372 70.6954C10.1912 59.2344 14.5709 48.4746 22.6062 40.3702C30.63 32.2658 41.3552 27.7826 52.8161 27.7366H53.0115C58.7592 27.7366 64.3345 28.8517 69.5879 31.0588C74.7148 33.2085 79.313 36.3008 83.2674 40.2552C87.2103 44.1982 90.314 48.8079 92.4637 53.9349C94.6938 59.2459 95.8088 64.8787 95.7859 70.6954C95.7169 82.145 91.2222 92.8703 83.1294 100.894Z" fill="#EDEFF0"/>
</svg>
