<svg width="25" height="23" viewBox="0 0 25 23" fill="none" xmlns="http://www.w3.org/2000/svg">
<path d="M10.5295 19.4002C5.0873 18.9296 1 16.9356 1 14.5472C1 13.1749 2.34922 11.9329 4.52946 11.0352M20.0591 11.0352C22.2393 11.9329 23.5885 13.1749 23.5885 14.5472C23.5885 16.778 20.0229 18.6648 15.1178 19.2875" stroke="white" stroke-width="2" stroke-linecap="round"/>
<path d="M10.6202 18.6694C11.2114 19.1072 11.1181 20.0225 10.4477 20.3622L8.47977 21.3595C7.77384 21.7173 6.96574 21.1739 7.04511 20.3949L7.27763 18.1125C7.35699 17.3335 8.26223 16.9233 8.88475 17.3843L10.6202 18.6694Z" fill="white"/>
<path d="M12.2939 5.58838C10.5085 5.58838 8.99976 7.09711 8.99976 8.88254C8.99976 10.668 10.5085 12.1767 12.2939 12.1767C14.0794 12.1767 15.5881 10.668 15.5881 8.88254C15.5881 7.09711 14.0794 5.58838 12.2939 5.58838ZM12.2939 10.5296C11.4168 10.5296 10.6468 9.75961 10.6468 8.88254C10.6468 8.00547 11.4168 7.23546 12.2939 7.23546C13.171 7.23546 13.941 8.00547 13.941 8.88254C13.941 9.75961 13.171 10.5296 12.2939 10.5296Z" fill="white"/>
<path d="M18.8821 3.1176H16.7524L14.5231 0.888271C14.4467 0.811647 14.356 0.750879 14.2561 0.709467C14.1561 0.668055 14.049 0.646817 13.9408 0.646974H10.6467C10.5385 0.646817 10.4314 0.668055 10.3315 0.709467C10.2315 0.750879 10.1408 0.811647 10.0644 0.888271L7.83511 3.1176H5.70543C4.79707 3.1176 4.05835 3.85631 4.05835 4.76468V13.8236C4.05835 14.732 4.79707 15.4707 5.70543 15.4707H18.8821C19.7904 15.4707 20.5292 14.732 20.5292 13.8236V4.76468C20.5292 3.85631 19.7904 3.1176 18.8821 3.1176ZM5.70543 13.8236V4.76468H8.17605C8.39511 4.76468 8.60429 4.67821 8.7583 4.52338L10.9876 2.29405H13.5999L15.8292 4.52338C15.9056 4.6 15.9963 4.66077 16.0962 4.70218C16.1962 4.7436 16.3033 4.76483 16.4115 4.76468H18.8821L18.8837 13.8236H5.70543Z" fill="white"/>
</svg>
