<svg width="32" height="32" viewBox="0 0 32 32" fill="none" xmlns="http://www.w3.org/2000/svg">
<path d="M13.255 5.49989C13.4791 5.49913 13.7005 5.54859 13.903 5.64463C14.1054 5.74067 14.2838 5.88086 14.425 6.05489L21.67 15.0549C21.8906 15.3233 22.0112 15.66 22.0112 16.0074C22.0112 16.3548 21.8906 16.6915 21.67 16.9599L14.17 25.9599C13.9154 26.2662 13.5495 26.4589 13.1529 26.4954C12.7562 26.532 12.3613 26.4095 12.055 26.1549C11.7487 25.9003 11.556 25.5344 11.5195 25.1378C11.4829 24.7411 11.6054 24.3462 11.86 24.0399L18.565 15.9999L12.085 7.95989C11.9016 7.73971 11.7851 7.4716 11.7492 7.18728C11.7134 6.90296 11.7598 6.61432 11.8829 6.35553C12.006 6.09674 12.2006 5.87862 12.4438 5.72699C12.6869 5.57535 12.9684 5.49655 13.255 5.49989Z" fill="#6666FF"/>
</svg>
