<svg xmlns="http://www.w3.org/2000/svg" width="24" height="24" viewBox="0 0 24 24" fill="none">
  <path d="M17.9559 3.5H14.7291C14.3029 2.34 13.1868 1.5 11.8676 1.5C10.5485 1.5 9.43235 2.34 9.00618 3.5H5.77941C4.66324 3.5 3.75 4.4 3.75 5.5V20.5C3.75 21.6 4.66324 22.5 5.77941 22.5H14.0087C13.2946 22.1094 12.8506 21.7188 12.5678 21H5.27206V5H7.80882V7H15.9265V5H18.4632V13C19.2084 13.0841 19.47 13.2013 19.9853 13.6V5.5C19.9853 4.4 19.0721 3.5 17.9559 3.5ZM11.8676 5.5C11.3096 5.5 10.8529 5.05 10.8529 4.5C10.8529 3.95 11.3096 3.5 11.8676 3.5C12.4257 3.5 12.8824 3.95 12.8824 4.5C12.8824 5.05 12.4257 5.5 11.8676 5.5Z" fill="#9f9f9f"/>
  <rect x="15.8067" y="15.25" width="1.88445" height="5.57143" fill="#9f9f9f"/>
  <rect x="19.5756" y="17.1072" width="1.85714" height="5.65336" transform="rotate(90 19.5756 17.1072)" fill="#9f9f9f"/>
  <rect x="7.98214" y="9.91077" width="8.35714" height="1.39286" fill="#9f9f9f"/>
  <rect x="7.98214" y="9.91077" width="8.35714" height="1.39286" fill="#9f9f9f"/>
  <rect x="7.98214" y="9.91077" width="8.35714" height="1.39286" fill="#9f9f9f"/>
  <rect x="7.98214" y="12.6964" width="6.26786" height="1.39286" fill="#9f9f9f"/>
  <rect x="7.98214" y="12.6964" width="6.26786" height="1.39286" fill="#9f9f9f"/>
  <rect x="7.98214" y="12.6964" width="6.26786" height="1.39286" fill="#9f9f9f"/>
  </svg>