<svg width="32" height="32" viewBox="0 0 32 32" fill="none" xmlns="http://www.w3.org/2000/svg">
<g clip-path="url(#clip0_511_3032)">
<path d="M31.3721 14.6443H28.1595C28.4553 13.7613 28.6095 12.8266 28.6095 11.8682C28.6095 9.54172 27.7035 7.3544 26.0584 5.70925C24.4356 4.08645 22.2782 3.18068 19.9836 3.1587C17.8891 3.14024 15.8935 3.8569 14.3048 5.19226C12.7376 3.87504 10.7754 3.15833 8.71124 3.15833C8.68286 3.15833 8.65429 3.15845 8.62591 3.1587C6.33135 3.18068 4.17398 4.08645 2.55117 5.70925C0.906021 7.35447 0 9.54179 0 11.8682C0 14.1948 0.906021 16.3822 2.55111 18.0272L4.75375 20.2299C4.99894 20.475 5.39651 20.475 5.64176 20.2299C5.88694 19.9847 5.88694 19.5871 5.64176 19.3419L3.43911 17.1392C2.03117 15.7314 1.25575 13.8594 1.25575 11.8682C1.25575 9.87713 2.03117 8.00519 3.43911 6.59725C4.82791 5.20846 6.67423 4.43322 8.6379 4.41445C10.5996 4.39354 12.4569 5.13242 13.87 6.48882C13.9869 6.60107 14.1427 6.66376 14.3048 6.66376C14.4669 6.66376 14.6227 6.60107 14.7396 6.48882C16.1526 5.13236 18.0108 4.39461 19.9717 4.41445C21.9354 4.43322 23.7817 5.20846 25.1705 6.59725C26.5784 8.00519 27.3539 9.87713 27.3539 11.8682C27.3539 12.8349 27.1706 13.7733 26.8215 14.6443H21.5502L20.5297 13.5732C20.2927 13.3246 19.8999 13.3125 19.648 13.5461L18.4647 14.6442H16.912C16.6677 14.6442 16.4456 14.7858 16.3426 15.0074L16.0193 15.7027L15.0578 9.86715C15.0336 9.72036 14.9581 9.58693 14.8447 9.49063C14.7313 9.39434 14.5873 9.34144 14.4386 9.34137H14.4383C14.2896 9.34137 14.1457 9.39415 14.0323 9.49031C13.9188 9.58647 13.8432 9.71976 13.8189 9.86646L12.875 15.5553L11.9647 14.7911C11.8516 14.6962 11.7086 14.6441 11.561 14.6441H10.5615L9.8529 14.0536C9.74006 13.9596 9.59782 13.9081 9.45094 13.9081C9.30405 13.9081 9.16182 13.9596 9.04897 14.0536L8.34035 14.6441H7.38994C7.04317 14.6441 6.76207 14.9253 6.76207 15.272C6.76207 15.6187 7.04317 15.8999 7.38994 15.8999H8.56764C8.7145 15.8999 8.85672 15.8484 8.96961 15.7544L9.45094 15.3533L9.93226 15.7544C10.0451 15.8484 10.1874 15.8999 10.3342 15.8999H11.3324L12.9106 17.2248C12.9954 17.296 13.0976 17.3435 13.2067 17.3625C13.3158 17.3815 13.428 17.3713 13.5319 17.3329C13.6358 17.2945 13.7277 17.2293 13.7983 17.1439C13.8688 17.0585 13.9155 16.9559 13.9336 16.8467L14.4361 13.8183L15.111 17.9148C15.1352 18.0617 15.2108 18.1952 15.3243 18.2916C15.4379 18.3879 15.582 18.4407 15.7309 18.4406C15.9723 18.4406 16.1959 18.301 16.2999 18.0775L17.3123 15.8999H18.7111C18.8695 15.8999 19.0221 15.8401 19.1382 15.7323L20.0479 14.8881L20.8266 15.7052C20.8852 15.7668 20.9557 15.8158 21.0339 15.8492C21.112 15.8827 21.1961 15.9 21.2811 15.9H26.1719C25.8834 16.3467 25.5484 16.7615 25.1724 17.1374L25.1688 17.1409L21.1736 21.1362L15.0182 27.2916C14.6249 27.685 13.9847 27.6849 13.5911 27.2913L9.6376 23.3377C9.39242 23.0925 8.99485 23.0925 8.7496 23.3377C8.50442 23.5829 8.50442 23.9804 8.7496 24.2257L12.7032 28.1793C13.1448 28.6208 13.7249 28.8417 14.305 28.8417C14.8849 28.8417 15.4647 28.621 15.9062 28.1796L22.0615 22.0242L26.0544 18.0313L26.0584 18.0273C26.6942 17.3916 27.2191 16.6746 27.6244 15.9001H31.3723C31.719 15.9001 32.0001 15.6189 32.0001 15.2722C32.0001 14.9255 31.7189 14.6443 31.3721 14.6443Z" fill="#425F57"/>
<path d="M7.19568 22.4118C7.54245 22.4118 7.82356 22.1306 7.82356 21.7839C7.82356 21.4371 7.54245 21.156 7.19568 21.156C6.84892 21.156 6.56781 21.4371 6.56781 21.7839C6.56781 22.1306 6.84892 22.4118 7.19568 22.4118Z" fill="#425F57"/>
</g>
<defs>
<clipPath id="clip0_511_3032">
<rect width="32" height="32" fill="white"/>
</clipPath>
</defs>
</svg>
