<svg width="20" height="18" viewBox="0 0 20 18" fill="none" xmlns="http://www.w3.org/2000/svg">
<path d="M7.76094 10.8667C7.18594 10.2927 6.83594 9.51268 6.83594 8.63768C6.83594 6.88468 8.24794 5.47168 9.99994 5.47168C10.8669 5.47168 11.6649 5.82268 12.2299 6.39668" stroke="#AFB0B8" stroke-width="1.5" stroke-linecap="round" stroke-linejoin="round"/>
<path d="M13.1054 9.19873C12.8734 10.4887 11.8574 11.5067 10.5684 11.7407" stroke="#AFB0B8" stroke-width="1.5" stroke-linecap="round" stroke-linejoin="round"/>
<path d="M4.655 13.9722C3.068 12.7262 1.724 10.9062 0.75 8.63723C1.734 6.35823 3.087 4.52823 4.684 3.27223C6.271 2.01623 8.102 1.33423 10 1.33423C11.909 1.33423 13.739 2.02623 15.336 3.29123" stroke="#AFB0B8" stroke-width="1.5" stroke-linecap="round" stroke-linejoin="round"/>
<path d="M17.4478 5.49072C18.1358 6.40472 18.7408 7.45972 19.2498 8.63672C17.2828 13.1937 13.8068 15.9387 9.99977 15.9387C9.13677 15.9387 8.28577 15.7987 7.46777 15.5257" stroke="#AFB0B8" stroke-width="1.5" stroke-linecap="round" stroke-linejoin="round"/>
<path d="M17.8873 0.749512L2.11328 16.5235" stroke="#AFB0B8" stroke-width="1.5" stroke-linecap="round" stroke-linejoin="round"/>
</svg>
