<svg width="32" height="32" viewBox="0 0 32 32" fill="none" xmlns="http://www.w3.org/2000/svg">
  <path d="M16 2.66663C23.364 2.66663 29.3333 8.63596 29.3333 16C29.3333 23.364 23.364 29.3333 16 29.3333C8.63599 29.3333 2.66666 23.364 2.66666 16C2.66666 8.63596 8.63599 2.66663 16 2.66663ZM16 4.52663C12.9571 4.52663 10.0388 5.73542 7.88712 7.88709C5.73545 10.0388 4.52666 12.957 4.52666 16C4.52666 19.0429 5.73545 21.9612 7.88712 24.1128C10.0388 26.2645 12.9571 27.4733 16 27.4733C19.0429 27.4733 21.9612 26.2645 24.1129 24.1128C26.2645 21.9612 27.4733 19.0429 27.4733 16C27.4733 12.957 26.2645 10.0388 24.1129 7.88709C21.9612 5.73542 19.0429 4.52663 16 4.52663ZM15.8067 13.0693C16.32 13.0693 16.736 13.4866 16.736 14V22.6666C16.7269 22.9072 16.6249 23.1349 16.4515 23.3018C16.2781 23.4688 16.0467 23.5621 15.806 23.5621C15.5653 23.5621 15.3339 23.4688 15.1605 23.3018C14.9871 23.1349 14.8851 22.9072 14.876 22.6666V13.9986C14.876 13.4853 15.292 13.0693 15.8067 13.0693ZM15.844 8.55996C16.1729 8.55996 16.4883 8.6906 16.7208 8.92315C16.9533 9.15569 17.084 9.47109 17.084 9.79996C17.084 10.1288 16.9533 10.4442 16.7208 10.6768C16.4883 10.9093 16.1729 11.04 15.844 11.04C15.5151 11.04 15.1997 10.9093 14.9672 10.6768C14.7346 10.4442 14.604 10.1288 14.604 9.79996C14.604 9.47109 14.7346 9.15569 14.9672 8.92315C15.1997 8.6906 15.5151 8.55996 15.844 8.55996Z" fill="#0D67ED" stroke="#0D67ED" stroke-width="0.5"/>
  </svg>
  