<svg width="25" height="25" viewBox="0 0 25 25" fill="none" xmlns="http://www.w3.org/2000/svg">
<path fill-rule="evenodd" clip-rule="evenodd" d="M11.3315 2.52148C13.7107 2.52148 15.6526 4.39542 15.7616 6.74772L15.7665 6.95648V7.88948C15.7665 8.3037 15.4307 8.63948 15.0165 8.63948C14.6368 8.63948 14.323 8.35733 14.2733 7.99125L14.2665 7.88948V6.95648C14.2665 5.39358 13.0444 4.11575 11.5039 4.02647L11.3315 4.02148H6.45646C4.89441 4.02148 3.61671 5.24362 3.52744 6.78406L3.52246 6.95648V18.0865C3.52246 19.6493 4.74436 20.9272 6.28412 21.0165L6.45646 21.0215H11.3415C12.8988 21.0215 14.1725 19.8039 14.2615 18.2693L14.2665 18.0975V17.1545C14.2665 16.7403 14.6022 16.4045 15.0165 16.4045C15.3962 16.4045 15.71 16.6866 15.7596 17.0527L15.7665 17.1545V18.0975C15.7665 20.4687 13.8997 22.4046 11.5558 22.5164L11.3415 22.5215H6.45646C4.07802 22.5215 2.1363 20.6474 2.02729 18.2952L2.02246 18.0865V6.95648C2.02246 4.57743 3.89622 2.63535 6.24777 2.52631L6.45646 2.52148H11.3315ZM22.3287 11.9797C22.4712 12.1162 22.56 12.3084 22.56 12.5214C22.56 12.7365 22.4694 12.9304 22.3244 13.0672L19.4109 15.9687C19.1174 16.261 18.6425 16.26 18.3502 15.9665C18.0845 15.6997 18.0612 15.283 18.2796 14.9898L18.3524 14.9059L19.9925 13.2714H9.76896C9.35475 13.2714 9.01896 12.9356 9.01896 12.5214C9.01896 12.1417 9.30112 11.8279 9.66719 11.7782L9.76896 11.7714H19.9942L18.3525 10.1378C18.0857 9.87212 18.0605 9.45551 18.2777 9.16142L18.3502 9.07714C18.6158 8.81028 19.0324 8.78514 19.3265 9.00234L19.4108 9.07478L22.3287 11.9797Z" fill="#0774E4"/>
</svg>
