<svg width="44" height="44" viewBox="0 0 44 44" fill="none" xmlns="http://www.w3.org/2000/svg">
<path d="M16.0179 16.6387C16.0179 16.5578 16.0853 16.4904 16.1646 16.4904H17.764C18.059 16.4904 18.3 16.2511 18.3 15.9545V14.3584C18.3 14.2775 18.3674 14.2101 18.4466 14.2101H19.4444C19.5236 14.2101 19.591 14.2775 19.591 14.3584V15.9545C19.591 16.2511 19.8303 16.4904 20.127 16.4904H21.7264C21.8056 16.4904 21.8731 16.5578 21.8731 16.6387V17.6348C21.8731 17.7157 21.8056 17.7831 21.7264 17.7831H20.127C19.832 17.7831 19.591 18.0225 19.591 18.3191V19.9152C19.591 19.9961 19.5236 20.0635 19.4444 20.0635H18.4466C18.3674 20.0635 18.3 19.9961 18.3 19.9152V18.3191C18.3 18.0225 18.0607 17.7831 17.764 17.7831H16.1646C16.0853 17.7831 16.0179 17.7157 16.0179 17.6348V16.6387ZM16.1646 18.8534H17.2281V19.9152C17.2281 20.5877 17.7741 21.1354 18.4449 21.1354H19.4427C20.1135 21.1354 20.6596 20.5877 20.6596 19.9152V18.8534H21.7231C22.3938 18.8534 22.9399 18.3056 22.9399 17.6331V16.6371C22.9399 15.9646 22.3938 15.4168 21.7231 15.4168H20.6596V14.355C20.6596 13.6825 20.1135 13.1348 19.4427 13.1348H18.4449C17.7741 13.1348 17.2281 13.6825 17.2281 14.355V15.4168H16.1646C15.4938 15.4168 14.9477 15.9646 14.9477 16.6371V17.6331C14.9477 18.3056 15.4938 18.8534 16.1646 18.8534Z" fill="#749F82"/>
<path d="M18.9455 11.365C22.1293 11.365 24.7181 13.9555 24.7181 17.1376C24.7181 20.3196 22.1276 22.9118 18.9455 22.9118C15.7635 22.9118 13.1713 20.3213 13.1713 17.1376C13.1713 13.9538 15.7618 11.365 18.9455 11.365ZM18.9455 23.9837C22.7192 23.9837 25.79 20.9129 25.79 17.1376C25.79 13.3622 22.7192 10.2931 18.9455 10.2931C15.1719 10.2931 12.0994 13.3639 12.0994 17.1376C12.0994 20.9112 15.1702 23.9837 18.9455 23.9837Z" fill="#9f9f9f"/>
<path d="M11.4589 30.8771C11.0713 30.8771 10.7544 30.562 10.7544 30.1726C10.7544 29.7833 11.0696 29.4681 11.4589 29.4681H22.2101C22.5978 29.4681 22.9146 29.7833 22.9146 30.1726C22.9146 30.562 22.5995 30.8771 22.2101 30.8771H11.4589Z" fill="#9f9f9f"/>
<path d="M11.4589 27.4237C11.0713 27.4237 10.7544 27.1085 10.7544 26.7192C10.7544 26.3298 11.0696 26.0146 11.4589 26.0146H18.8124C19.2 26.0146 19.5169 26.3298 19.5169 26.7192C19.5169 27.1085 19.2017 27.4237 18.8124 27.4237H11.4589Z" fill="#9f9f9f"/>
<path d="M5.73018 40.6154C5.12006 40.6154 4.62286 40.1182 4.62286 39.5064V4.95713C4.62286 4.34701 5.12006 3.84982 5.73018 3.84982H12.1297C12.3269 3.55993 12.6555 3.38464 13.0078 3.38464H24.8798C25.2338 3.38464 25.5624 3.55993 25.7579 3.84982H32.1591C32.7693 3.84982 33.2665 4.34701 33.2665 4.95713V12.4909L36.1519 6.86671C36.4603 6.26333 36.9879 5.81501 37.6384 5.60602C37.8946 5.52343 38.1592 5.4813 38.4255 5.4813C38.8233 5.4813 39.2227 5.57737 39.58 5.76108C40.8306 6.4049 41.3244 7.94368 40.684 9.19258L39.307 11.8774L39.9255 12.196C40.4244 12.4522 40.7952 12.8887 40.9671 13.4263C41.139 13.9623 41.0935 14.5303 40.8373 15.0292L36.7401 23.018C36.6187 23.254 36.3794 23.4006 36.1131 23.4006C36.0019 23.4006 35.8923 23.3736 35.7929 23.3231C35.4474 23.1461 35.3109 22.7214 35.4878 22.3759L39.5868 14.3853C39.671 14.2218 39.6862 14.0348 39.6289 13.8561C39.5716 13.6775 39.4486 13.5325 39.2851 13.4482L38.6665 13.1314L38.3362 13.7752L38.3294 13.787L33.2698 23.6517V39.5064C33.2698 40.1182 32.7726 40.6154 32.1625 40.6154H5.73018ZM31.8591 39.2081V26.3973L30.3035 29.4276V36.4187C30.3035 37.0406 29.7979 37.5463 29.176 37.5463H8.71336C8.09144 37.5463 7.58582 37.0406 7.58582 36.4187V23.4293C7.58582 23.0416 7.90099 22.7248 8.29032 22.7248C8.67965 22.7248 8.99482 23.0399 8.99482 23.4293V36.1356H28.8962V31.5108L25.6433 34.767C25.399 35.0114 25.1394 35.1412 24.8916 35.1412C24.7753 35.1412 24.6607 35.1125 24.5529 35.0586C24.4332 34.9962 24.3371 34.912 24.2664 34.8058H11.4589C11.0713 34.8058 10.7544 34.4906 10.7544 34.1013C10.7544 33.712 11.0696 33.3968 11.4589 33.3968H24.2512L24.4534 32.1664L24.6843 30.7591L24.8866 29.5288L25.2473 28.1214L25.8793 26.8911L26.6023 25.4838L28.8962 21.0124V8.32964H25.7596C25.7209 8.38695 25.677 8.44088 25.6265 8.48807C25.4259 8.68527 25.1596 8.79482 24.8748 8.79482H20.3191C19.9298 8.79145 19.6163 8.47459 19.6197 8.08526C19.623 7.6993 19.9382 7.38581 20.3242 7.38581H24.5343V4.79196H13.355V7.38413H17.85C18.2359 7.38413 18.5511 7.6993 18.5545 8.08526C18.5579 8.4729 18.2427 8.79145 17.855 8.79482H13.0128C12.7246 8.79482 12.4617 8.68527 12.2628 8.48807C12.214 8.4392 12.1701 8.38695 12.1314 8.32964H8.99314V20.9584C8.99314 21.3461 8.67797 21.6629 8.28864 21.6629C7.89931 21.6629 7.58413 21.3478 7.58413 20.9584V8.04818C7.58413 7.42626 8.08976 6.92064 8.71168 6.92064H11.946V5.25882H6.03018V39.2064H31.8575L31.8591 39.2081ZM25.8085 32.6114L27.9372 30.4793L26.2973 29.6383L25.8085 32.6114ZM28.7731 29.3265L28.9552 28.9726C28.9636 28.9524 28.9788 28.9203 28.9973 28.89L36.762 13.7516L34.7345 12.7117L26.7439 28.2849L28.7715 29.3248L28.7731 29.3265ZM29.176 6.92232C29.7979 6.92232 30.3035 7.42795 30.3035 8.04987V18.2652L31.8591 15.2348V5.25882H25.9433V6.92232H29.1776H29.176ZM37.4041 12.4994L38.0564 11.2269L36.0305 10.187L35.3766 11.4611L37.4041 12.501V12.4994ZM38.7002 9.97292L39.43 8.55212C39.7165 7.99256 39.4957 7.30323 38.9362 7.01671C38.7761 6.93412 38.6025 6.89199 38.4221 6.89199C38.3025 6.89199 38.1828 6.91053 38.0665 6.94761C37.7749 7.04199 37.5407 7.24087 37.4025 7.50885L36.6727 8.93134L38.6985 9.97124L38.7002 9.97292Z" fill="#9f9f9f"/>
</svg>
