<svg width="21" height="25" viewBox="0 0 25 34" fill="none" xmlns="http://www.w3.org/2000/svg">
<rect x="9.5" y="0.5" width="10" height="21" rx="5" fill="white" stroke="white"/>
<path d="M15.6065 27.4519L15.15 27.4918V27.95V32V32.5H15.65H22.55C22.7432 32.5 22.9168 32.5674 23.0351 32.6702C23.1511 32.7711 23.2 32.8917 23.2 33C23.2 33.1083 23.1511 33.2289 23.0351 33.3298C22.9168 33.4326 22.7432 33.5 22.55 33.5H6.45C6.25679 33.5 6.08317 33.4326 5.96492 33.3298C5.84887 33.2289 5.8 33.1083 5.8 33C5.8 32.8917 5.84887 32.7711 5.96492 32.6702C6.08317 32.5674 6.25679 32.5 6.45 32.5H13.35H13.85V32V27.95V27.4918L13.3935 27.4519C10.6617 27.2132 8.14172 26.1012 6.31784 24.3478C4.49581 22.5962 3.49997 20.3328 3.5 18V18V16C3.5 15.8917 3.54887 15.7711 3.66492 15.6702C3.78317 15.5674 3.95679 15.5 4.15 15.5C4.34321 15.5 4.51683 15.5674 4.63508 15.6702C4.75113 15.7711 4.8 15.8917 4.8 16V18C4.8 20.2787 5.84157 22.4472 7.66653 24.0342C9.48927 25.6192 11.9482 26.5 14.5 26.5C17.0518 26.5 19.5107 25.6192 21.3335 24.0342C23.1584 22.4472 24.2 20.2787 24.2 18V16C24.2 15.8917 24.2489 15.7711 24.3649 15.6702C24.4832 15.5674 24.6568 15.5 24.85 15.5C25.0432 15.5 25.2168 15.5674 25.3351 15.6702C25.4511 15.7711 25.5 15.8917 25.5 16V18C25.5 20.3328 24.5042 22.5962 22.6822 24.3478C20.8583 26.1012 18.3383 27.2132 15.6065 27.4519Z" fill="white" stroke="white"/>
<line x1="1.41401" y1="4.02397" x2="29.024" y2="32.586" stroke="white" stroke-width="2" stroke-linecap="round"/>
</svg>
