<svg width="21" height="27" viewBox="0 0 23 34" fill="none" xmlns="http://www.w3.org/2000/svg">
<rect x="6" width="11" height="22" rx="5.5" fill="white"/>
<path d="M1.15 15C1.455 15 1.74751 15.1054 1.96317 15.2929C2.17884 15.4804 2.3 15.7348 2.3 16V18C2.3 20.1217 3.26928 22.1566 4.99462 23.6569C6.71995 25.1571 9.06001 26 11.5 26C13.94 26 16.28 25.1571 18.0054 23.6569C19.7307 22.1566 20.7 20.1217 20.7 18V16C20.7 15.7348 20.8212 15.4804 21.0368 15.2929C21.2525 15.1054 21.545 15 21.85 15C22.155 15 22.4475 15.1054 22.6632 15.2929C22.8788 15.4804 23 15.7348 23 16V18C23 20.4791 21.9411 22.8698 20.0287 24.7083C18.1162 26.5468 15.4866 27.7021 12.65 27.95V32H19.55C19.855 32 20.1475 32.1054 20.3632 32.2929C20.5788 32.4804 20.7 32.7348 20.7 33C20.7 33.2652 20.5788 33.5196 20.3632 33.7071C20.1475 33.8946 19.855 34 19.55 34H3.45C3.145 34 2.85249 33.8946 2.63683 33.7071C2.42116 33.5196 2.3 33.2652 2.3 33C2.3 32.7348 2.42116 32.4804 2.63683 32.2929C2.85249 32.1054 3.145 32 3.45 32H10.35V27.95C7.51337 27.7021 4.88376 26.5468 2.97132 24.7083C1.05888 22.8698 -3.58148e-05 20.4791 9.08514e-10 18V16C9.08514e-10 15.7348 0.121161 15.4804 0.336827 15.2929C0.552494 15.1054 0.845001 15 1.15 15Z" fill="white"/>
</svg>
