<svg width="308" height="185" viewBox="0 0 308 185" fill="none" xmlns="http://www.w3.org/2000/svg">
<path d="M84.9077 21.8696C76.3604 21.8696 74.8843 28.4011 74.9025 31.3384C74.9025 33.9838 75.9777 40.9896 85.0899 41.0625C93.8559 41.0625 96.0246 34.3304 94.9676 29.5869C94.3662 26.905 92.5985 21.9791 84.9077 21.8696Z" fill="white"/>
<path d="M85.2364 42.047H85.0906C76.999 42.047 74.1559 36.5738 74.0101 31.4289C73.9458 29.9995 74.1892 28.573 74.7239 27.2461C75.2586 25.9192 76.0721 24.7229 77.1092 23.7384C78.1463 22.7538 79.3827 22.004 80.7346 21.5398C82.0866 21.0756 83.5224 20.9079 84.9448 21.0479C90.9406 21.0479 94.622 23.9488 95.8795 29.4768C96.2482 31.0095 96.2762 32.6047 95.9612 34.1495C95.6463 35.6942 94.9963 37.1509 94.057 38.4164C92.9748 39.6724 91.6123 40.6555 90.0799 41.2862C88.5475 41.917 86.8882 42.1776 85.2364 42.047ZM84.7626 22.8541C83.5907 22.7305 82.406 22.8635 81.2906 23.2438C80.1751 23.6241 79.1556 24.2426 78.3027 25.0566C77.4498 25.8705 76.7838 26.8603 76.351 27.9575C75.9182 29.0547 75.7289 30.2329 75.7962 31.4106C75.7962 34.0561 76.7985 40.1861 85.1089 40.2591H85.2364C86.5768 40.4224 87.9366 40.2512 89.1948 39.7607C90.453 39.2701 91.5704 38.4755 92.4474 37.4477C93.3243 36.4199 93.9335 35.1908 94.2208 33.87C94.508 32.5493 94.4643 31.1779 94.0935 29.8781C93.0365 25.1894 90.0295 22.8906 84.9813 22.8541H84.7626Z" fill="#D3D3D3"/>
<path d="M44.587 89.4863C43.8944 96.4921 43.3295 104.082 47.3754 110.011C50.4495 113.941 54.6152 116.873 59.3489 118.44C63.9961 120.264 73.4545 122.235 77.956 124.387C75.1859 116.415 73.7097 107.019 68.0236 99.9038C59.2212 88.866 49.9632 89.8695 44.587 89.4863Z" fill="#ECECEC"/>
<path d="M77.9558 125.244C77.8236 125.272 77.6872 125.272 77.5549 125.244C74.1602 123.858 70.6702 122.718 67.1122 121.833C64.0141 120.957 61.0799 120.136 59.0206 119.333C53.134 117.016 49.0882 114.152 46.6279 110.576C42.5639 104.647 42.9831 97.2031 43.6938 89.4493C43.7213 89.2171 43.8369 89.0043 44.0166 88.8549C44.1964 88.7055 44.4267 88.6309 44.6598 88.6466C45.2612 88.6466 45.9172 88.6466 46.6279 88.756C52.2228 88.9932 60.679 89.3581 68.716 99.4107C73.0534 104.884 74.967 111.415 76.8441 117.801C77.482 120.027 78.0834 122.106 78.7942 124.15C78.8488 124.316 78.8538 124.494 78.8084 124.662C78.7631 124.831 78.6694 124.983 78.539 125.098C78.3701 125.219 78.1617 125.271 77.9558 125.244ZM45.3887 90.398C44.7144 97.495 44.5321 104.245 48.1041 109.463C50.3457 112.747 54.1365 115.393 59.6767 117.564C61.645 118.348 64.5426 119.151 67.6043 120.008C70.666 120.866 73.9829 121.833 76.4796 122.745C76.0058 121.249 75.5502 119.716 75.1128 118.22C73.2903 111.999 71.468 105.577 67.331 100.432C59.7861 91.0183 51.8219 90.6717 46.5551 90.4528L45.3887 90.398Z" fill="#D3D3D3"/>
<path d="M72.16 117.636C72.1147 117.638 72.0697 117.629 72.0286 117.61C71.9875 117.591 71.9513 117.562 71.923 117.527C64.9275 109.174 57.2133 101.451 48.8691 94.4481C48.8222 94.393 48.7959 94.3233 48.795 94.2509C48.794 94.1785 48.8183 94.1081 48.8637 94.0518C48.9091 93.9955 48.9728 93.9569 49.0437 93.9426C49.1145 93.9283 49.1882 93.9393 49.2518 93.9737C57.625 101.003 65.3638 108.756 72.3787 117.144C72.4068 117.171 72.4291 117.204 72.4444 117.24C72.4597 117.276 72.4675 117.314 72.4675 117.354C72.4675 117.393 72.4597 117.432 72.4444 117.468C72.4291 117.504 72.4068 117.536 72.3787 117.563C72.3505 117.592 72.316 117.613 72.278 117.626C72.24 117.639 72.1996 117.642 72.16 117.636Z" fill="#D3D3D3"/>
<path d="M220.893 141.335C221.166 126.502 231.663 112.327 246.152 107.255C251.455 105.43 257.305 104.609 261.898 101.453C262.809 109.772 263.574 118.785 259 125.9C256.583 129.335 253.48 132.23 249.888 134.402C241.466 140.344 231.088 142.825 220.893 141.335Z" fill="#ECECEC"/>
<path d="M227.016 142.667C224.931 142.663 222.849 142.517 220.784 142.23C220.565 142.199 220.365 142.089 220.22 141.921C220.076 141.753 219.998 141.539 220 141.317C220.321 133.578 222.956 126.114 227.564 119.891C232.171 113.669 238.539 108.974 245.842 106.416C247.519 105.814 249.269 105.34 250.963 104.865C254.644 104.066 258.167 102.66 261.388 100.706C261.526 100.634 261.679 100.596 261.834 100.596C261.99 100.596 262.143 100.634 262.281 100.706C262.419 100.776 262.538 100.88 262.627 101.007C262.716 101.134 262.772 101.281 262.791 101.435C263.593 108.733 264.614 118.767 259.748 126.467C257.281 130.017 254.088 133.003 250.38 135.224C243.524 140.014 235.377 142.61 227.016 142.667ZM221.822 140.569C231.737 141.773 240.284 139.639 249.396 133.655C252.895 131.576 255.914 128.778 258.253 125.445C262.263 119.187 262.026 111.287 261.169 102.986C258.092 104.609 254.822 105.835 251.437 106.635C249.779 107.091 248.066 107.566 246.444 108.131C232.684 112.929 222.442 126.485 221.822 140.569Z" fill="#D3D3D3"/>
<path d="M242.07 123.803C241.999 123.829 241.922 123.829 241.851 123.803C241.799 123.745 241.77 123.671 241.77 123.593C241.77 123.515 241.799 123.44 241.851 123.383C247.118 118.019 252.567 112.674 258.089 107.529C258.116 107.501 258.149 107.478 258.185 107.463C258.221 107.448 258.26 107.44 258.299 107.44C258.338 107.44 258.377 107.448 258.413 107.463C258.449 107.478 258.481 107.501 258.508 107.529C258.566 107.587 258.599 107.666 258.599 107.748C258.599 107.83 258.566 107.909 258.508 107.967C253.041 113.112 247.574 118.439 242.289 123.803C242.218 123.831 242.14 123.831 242.07 123.803Z" fill="#D3D3D3"/>
<path d="M132.924 125.949C115.775 125.767 112.877 138.975 112.877 144.832C112.877 150.123 115.046 164.098 133.343 164.298C150.893 164.481 155.212 150.889 153.098 141.42C151.968 136.056 148.324 126.113 132.924 125.949Z" fill="white"/>
<path d="M133.744 165.192H133.398C113.697 165.046 112.057 149.557 112.003 144.831C111.918 139.521 113.875 134.38 117.47 130.473C121.115 126.824 126.127 125 132.523 125H132.87C144.442 125.109 151.532 130.473 153.937 141.164C154.615 144.101 154.639 147.152 154.009 150.099C153.38 153.047 152.111 155.82 150.292 158.223C146.775 162.802 141.034 165.192 133.744 165.192ZM132.615 126.879C126.71 126.879 122.081 128.521 118.837 131.787C115.55 135.333 113.761 140.013 113.843 144.85C113.843 149.155 115.447 163.24 133.416 163.441H133.744C140.487 163.441 145.773 161.288 149.071 157.183C150.711 154.989 151.849 152.461 152.404 149.778C152.958 147.094 152.915 144.322 152.279 141.657C150.055 131.823 143.731 127.062 132.943 126.879H132.615Z" fill="#D3D3D3"/>
<path d="M134.436 136.075C134.357 136.075 134.281 136.045 134.223 135.991C134.166 135.936 134.131 135.862 134.126 135.783L134.035 131.879C134.035 131.801 134.066 131.727 134.121 131.672C134.175 131.618 134.249 131.587 134.327 131.587C134.406 131.587 134.482 131.617 134.54 131.671C134.597 131.725 134.632 131.8 134.637 131.879V135.765C134.637 135.844 134.607 135.92 134.552 135.978C134.498 136.036 134.424 136.07 134.345 136.075H134.436Z" fill="#D3D3D3"/>
<path d="M142.292 140.819C142.241 140.817 142.191 140.803 142.146 140.778C142.102 140.752 142.064 140.716 142.037 140.673C142.001 140.601 141.992 140.519 142.013 140.442C142.033 140.365 142.08 140.298 142.146 140.253C143.327 139.546 144.544 138.901 145.791 138.319C145.866 138.289 145.95 138.289 146.025 138.319C146.1 138.35 146.16 138.409 146.192 138.483C146.207 138.519 146.214 138.558 146.214 138.597C146.214 138.635 146.206 138.674 146.191 138.709C146.175 138.745 146.153 138.777 146.125 138.804C146.097 138.831 146.064 138.852 146.028 138.867C144.78 139.406 143.563 140.015 142.383 140.691C142.365 140.741 142.334 140.785 142.292 140.819Z" fill="#D3D3D3"/>
<path d="M146.009 151.727H145.864L141.526 149.52C141.491 149.503 141.46 149.478 141.434 149.448C141.408 149.419 141.389 149.384 141.377 149.346C141.365 149.309 141.361 149.269 141.365 149.23C141.368 149.191 141.38 149.153 141.399 149.119C141.434 149.047 141.495 148.993 141.57 148.965C141.645 148.938 141.727 148.941 141.8 148.973L146.137 151.18C146.172 151.197 146.204 151.222 146.229 151.252C146.255 151.281 146.274 151.316 146.286 151.354C146.298 151.391 146.303 151.431 146.299 151.47C146.295 151.509 146.283 151.547 146.265 151.581C146.242 151.629 146.206 151.669 146.16 151.695C146.115 151.721 146.062 151.732 146.009 151.727Z" fill="#D3D3D3"/>
<path d="M136.441 159.079C136.375 159.078 136.312 159.056 136.259 159.017C136.207 158.978 136.169 158.923 136.149 158.86C135.78 157.521 135.518 156.154 135.366 154.773C135.361 154.734 135.364 154.693 135.375 154.655C135.386 154.616 135.405 154.58 135.431 154.55C135.456 154.519 135.488 154.494 135.524 154.476C135.56 154.458 135.599 154.447 135.639 154.445C135.678 154.437 135.718 154.438 135.756 154.447C135.795 154.456 135.831 154.473 135.862 154.497C135.893 154.521 135.919 154.552 135.937 154.587C135.955 154.622 135.965 154.661 135.967 154.7C136.113 156.051 136.369 157.387 136.732 158.696C136.743 158.734 136.746 158.774 136.741 158.814C136.736 158.854 136.722 158.892 136.702 158.926C136.681 158.96 136.654 158.99 136.622 159.013C136.589 159.036 136.553 159.052 136.514 159.061L136.441 159.079Z" fill="#D3D3D3"/>
<path d="M124.632 157.073H124.486C124.417 157.031 124.366 156.965 124.342 156.888C124.319 156.81 124.325 156.727 124.359 156.653C125.143 155.169 126.077 153.769 127.147 152.475C127.198 152.415 127.271 152.377 127.349 152.37C127.428 152.363 127.506 152.388 127.566 152.439C127.627 152.49 127.665 152.562 127.671 152.641C127.678 152.72 127.654 152.798 127.603 152.859C126.563 154.126 125.654 155.495 124.887 156.945C124.859 156.987 124.821 157.02 124.776 157.042C124.732 157.065 124.682 157.075 124.632 157.073Z" fill="#D3D3D3"/>
<path d="M119.821 146.802C119.786 146.804 119.75 146.799 119.715 146.788C119.681 146.776 119.65 146.758 119.623 146.734C119.596 146.711 119.573 146.682 119.557 146.65C119.542 146.617 119.532 146.582 119.53 146.546C119.525 146.508 119.527 146.469 119.537 146.431C119.548 146.394 119.565 146.359 119.589 146.328C119.612 146.298 119.642 146.272 119.676 146.253C119.709 146.234 119.747 146.222 119.785 146.218L124.122 145.597C124.161 145.589 124.201 145.59 124.24 145.599C124.278 145.608 124.314 145.625 124.345 145.649C124.376 145.674 124.402 145.704 124.42 145.74C124.438 145.775 124.449 145.813 124.451 145.853C124.456 145.891 124.453 145.93 124.443 145.968C124.433 146.005 124.415 146.04 124.392 146.07C124.368 146.101 124.338 146.127 124.305 146.146C124.271 146.165 124.234 146.177 124.195 146.181L119.876 146.802H119.821Z" fill="#D3D3D3"/>
<path d="M125.324 138.901C125.254 138.928 125.176 138.928 125.105 138.901C123.994 137.734 122.9 136.511 121.843 135.253C121.792 135.192 121.768 135.114 121.775 135.035C121.781 134.957 121.819 134.884 121.88 134.833C121.94 134.782 122.018 134.757 122.097 134.764C122.175 134.771 122.248 134.809 122.299 134.869C123.337 136.074 124.431 137.296 125.524 138.518C125.561 138.561 125.586 138.613 125.595 138.669C125.605 138.724 125.599 138.782 125.578 138.834C125.558 138.887 125.523 138.933 125.478 138.967C125.433 139.001 125.38 139.023 125.324 139.029V138.901Z" fill="#D3D3D3"/>
<path d="M249.033 24.907C247.861 24.8918 246.729 25.3372 245.881 26.1476C245.484 26.5866 245.194 27.1112 245.032 27.6808C244.871 28.2504 244.843 28.8495 244.951 29.4315C245.088 30.0957 245.375 30.7197 245.789 31.256C246.264 31.9191 246.895 32.4544 247.626 32.8141C248.358 33.1738 249.167 33.3468 249.981 33.3176C250.522 33.2904 251.051 33.1502 251.535 32.906C252.018 32.6619 252.445 32.3191 252.788 31.8999C253.132 31.4806 253.383 30.9941 253.528 30.4716C253.672 29.9491 253.705 29.4022 253.626 28.866C253.576 28.2635 253.401 27.6781 253.113 27.1472C252.824 26.6162 252.428 26.1515 251.949 25.7827C251.102 25.1739 250.076 24.8657 249.033 24.907Z" fill="white"/>
<path d="M249.654 34.2477C248.756 34.2141 247.878 33.9766 247.085 33.5531C246.293 33.1295 245.607 32.5311 245.08 31.803C244.575 31.1576 244.231 30.4007 244.077 29.5954C243.947 28.8787 243.982 28.1419 244.177 27.4403C244.373 26.7388 244.725 26.0908 245.207 25.5452C245.704 25.0536 246.293 24.6651 246.941 24.4021C247.588 24.1391 248.281 24.0068 248.98 24.0127C250.284 23.9236 251.577 24.3055 252.625 25.0891C253.191 25.5282 253.663 26.0781 254.01 26.7054C254.358 27.3327 254.575 28.0242 254.647 28.7379C254.754 29.4015 254.718 30.0802 254.542 30.7288C254.365 31.3773 254.053 31.9807 253.625 32.4987C253.197 33.0167 252.664 33.4375 252.061 33.7328C251.458 34.0281 250.799 34.1912 250.128 34.2112L249.654 34.2477ZM249.089 25.8006C248.148 25.7752 247.234 26.1151 246.537 26.7493C246.217 27.0879 245.979 27.4966 245.843 27.9431C245.707 28.3895 245.676 28.8615 245.754 29.3217C245.863 29.8538 246.094 30.3534 246.428 30.7813C246.809 31.3242 247.317 31.7647 247.908 32.0639C248.5 32.363 249.156 32.5115 249.818 32.4962C250.249 32.4921 250.674 32.3941 251.063 32.2092C251.452 32.0242 251.797 31.7567 252.072 31.4252C252.348 31.0937 252.548 30.7061 252.659 30.2893C252.77 29.8725 252.79 29.4365 252.716 29.0116C252.676 28.5339 252.537 28.0698 252.308 27.6489C252.079 27.2279 251.765 26.8594 251.385 26.5669C250.725 26.0647 249.918 25.7952 249.089 25.8006Z" fill="#D3D3D3"/>
<path d="M38.0333 52.907C36.8608 52.8918 35.729 53.3372 34.8805 54.1476C34.4838 54.5866 34.1936 55.1112 34.0324 55.6808C33.8712 56.2504 33.8433 56.8495 33.9511 57.4315C34.088 58.0957 34.3748 58.7197 34.7894 59.256C35.264 59.9191 35.8951 60.4544 36.6265 60.8141C37.3578 61.1738 38.1667 61.3468 38.981 61.3176C39.5219 61.2904 40.051 61.1502 40.5345 60.906C41.018 60.6619 41.4451 60.3191 41.7883 59.8999C42.1316 59.4806 42.3835 58.9941 42.5277 58.4716C42.672 57.9491 42.7054 57.4022 42.6259 56.866C42.5763 56.2635 42.4014 55.6781 42.1127 55.1472C41.824 54.6162 41.4278 54.1515 40.9493 53.7827C40.1019 53.1739 39.0756 52.8657 38.0333 52.907Z" fill="white"/>
<path d="M38.6539 62.2477C37.7562 62.2141 36.8778 61.9766 36.0853 61.5531C35.2928 61.1295 34.6069 60.5311 34.0795 59.803C33.5745 59.1576 33.2309 58.4007 33.0772 57.5954C32.9474 56.8787 32.9816 56.1419 33.1773 55.4403C33.373 54.7388 33.7251 54.0908 34.2071 53.5452C34.7041 53.0536 35.2932 52.6651 35.9406 52.4021C36.588 52.1391 37.281 52.0068 37.9796 52.0127C39.2841 51.9236 40.5772 52.3055 41.6245 53.0891C42.1912 53.5282 42.6627 54.0781 43.0105 54.7054C43.3582 55.3327 43.5749 56.0242 43.6474 56.7379C43.754 57.4015 43.7179 58.0802 43.5416 58.7288C43.3653 59.3773 43.0529 59.9807 42.6252 60.4987C42.1974 61.0167 41.6641 61.4375 41.061 61.7328C40.4579 62.0281 39.7988 62.1912 39.1278 62.2112L38.6539 62.2477ZM38.089 53.8006C37.148 53.7752 36.2337 54.1151 35.5375 54.7493C35.2166 55.0879 34.9787 55.4966 34.8427 55.9431C34.7067 56.3895 34.6763 56.8615 34.7538 57.3217C34.8631 57.8538 35.0939 58.3534 35.4281 58.7813C35.8087 59.3242 36.3171 59.7647 36.9084 60.0639C37.4997 60.363 38.1555 60.5115 38.8179 60.4962C39.2487 60.4921 39.6736 60.3941 40.0629 60.2092C40.4522 60.0242 40.7966 59.7567 41.0722 59.4252C41.3479 59.0937 41.5482 58.7061 41.6593 58.2893C41.7704 57.8725 41.7896 57.4365 41.7156 57.0116C41.6758 56.5339 41.5369 56.0698 41.3078 55.6489C41.0788 55.2279 40.7646 54.8594 40.3853 54.5669C39.7253 54.0647 38.9179 53.7952 38.089 53.8006Z" fill="#D3D3D3"/>
<path d="M251.033 170.49C249.861 170.475 248.729 170.921 247.881 171.731C247.484 172.17 247.194 172.695 247.032 173.264C246.871 173.834 246.843 174.433 246.951 175.015C247.088 175.679 247.375 176.303 247.789 176.839C248.264 177.503 248.895 178.038 249.626 178.398C250.358 178.757 251.167 178.93 251.981 178.901C252.522 178.874 253.051 178.734 253.535 178.49C254.018 178.245 254.445 177.903 254.788 177.483C255.132 177.064 255.383 176.578 255.528 176.055C255.672 175.533 255.705 174.986 255.626 174.449C255.576 173.847 255.401 173.262 255.113 172.731C254.824 172.2 254.428 171.735 253.949 171.366C253.102 170.757 252.076 170.449 251.033 170.49Z" fill="white"/>
<path d="M251.654 179.831C250.756 179.798 249.878 179.56 249.085 179.137C248.293 178.713 247.607 178.115 247.08 177.386C246.575 176.741 246.231 175.984 246.077 175.179C245.947 174.462 245.982 173.725 246.177 173.024C246.373 172.322 246.725 171.674 247.207 171.129C247.704 170.637 248.293 170.249 248.941 169.986C249.588 169.723 250.281 169.59 250.98 169.596C252.284 169.507 253.577 169.889 254.625 170.673C255.191 171.112 255.663 171.662 256.01 172.289C256.358 172.916 256.575 173.608 256.647 174.321C256.754 174.985 256.718 175.664 256.542 176.312C256.365 176.961 256.053 177.564 255.625 178.082C255.197 178.6 254.664 179.021 254.061 179.316C253.458 179.612 252.799 179.775 252.128 179.795L251.654 179.831ZM251.089 171.384C250.148 171.359 249.234 171.699 248.537 172.333C248.217 172.671 247.979 173.08 247.843 173.527C247.707 173.973 247.676 174.445 247.754 174.905C247.863 175.437 248.094 175.937 248.428 176.365C248.809 176.908 249.317 177.348 249.908 177.647C250.5 177.947 251.156 178.095 251.818 178.08C252.249 178.076 252.674 177.978 253.063 177.793C253.452 177.608 253.797 177.34 254.072 177.009C254.348 176.677 254.548 176.29 254.659 175.873C254.77 175.456 254.79 175.02 254.716 174.595C254.676 174.117 254.537 173.653 254.308 173.232C254.079 172.811 253.765 172.443 253.385 172.15C252.725 171.648 251.918 171.379 251.089 171.384Z" fill="#D3D3D3"/>
<path d="M35.7161 134.308C34.3939 136.796 34.1116 139.707 34.9311 142.403C36.0203 145.35 38.709 149.211 45.5683 148.454C46.7809 148.316 47.9636 147.985 49.0715 147.472C53.0752 145.635 54.763 140.222 53.7719 136.067C53.2823 134.062 52.0968 132.296 50.4269 131.085C48.757 129.874 46.7116 129.296 44.6557 129.456C41.1819 129.652 37.3647 131.293 35.7161 134.308ZM45.3426 133.405C46.6581 133.301 47.9675 133.669 49.037 134.443C50.1065 135.217 50.8665 136.346 51.1813 137.629C51.8191 140.281 50.7299 143.729 48.1589 144.908C47.4477 145.23 46.6885 145.432 45.9117 145.507C41.5155 145.989 39.7885 143.543 39.0918 141.656C38.8346 140.802 38.7482 139.904 38.8375 139.016C38.9267 138.128 39.1898 137.266 39.6118 136.479C40.652 134.554 43.1151 133.503 45.3426 133.405Z" fill="white"/>
<path d="M43.8726 149.033C38.1222 149.033 35.5905 145.605 34.4816 142.57C33.6237 139.739 33.9201 136.684 35.3059 134.072C37.0722 130.791 41.2722 129.16 44.638 129.023C46.8053 128.87 48.9571 129.486 50.7157 130.764C52.4743 132.041 53.7273 133.897 54.2547 136.007C55.236 140.192 53.6365 145.959 49.2795 147.953C48.1239 148.476 46.891 148.808 45.6291 148.935C45.0459 149 44.4595 149.033 43.8726 149.033ZM45.1188 129.976H44.6871C41.5862 130.113 37.7395 131.567 36.1498 134.524C35.5239 135.697 35.1351 136.981 35.0054 138.305C34.8758 139.628 35.0079 140.964 35.3942 142.236C36.3755 144.967 38.6815 148.061 43.9118 148.061C44.4498 148.061 44.9872 148.028 45.5212 147.963C46.6807 147.848 47.814 147.546 48.8772 147.069C52.8024 145.271 54.2252 140.045 53.3126 136.263C52.8845 134.428 51.8338 132.798 50.3396 131.651C48.8455 130.505 47.0004 129.913 45.1188 129.976ZM44.8441 146.096C43.4908 146.169 42.1513 145.794 41.0322 145.028C39.9132 144.263 39.0767 143.151 38.6521 141.862C38.09 140.007 38.284 138.005 39.1918 136.292C40.4479 133.984 43.2838 133.06 45.3347 132.962C46.7603 132.859 48.1764 133.263 49.3341 134.102C50.4918 134.941 51.3168 136.162 51.6641 137.55C52.3215 140.29 51.2519 144.073 48.3767 145.409C47.6129 145.744 46.802 145.959 45.9726 146.047C45.5801 146.027 45.2268 146.057 44.8441 146.057V146.096ZM45.374 133.925C43.4114 134.013 41.0366 134.907 40.0455 136.754C39.6535 137.478 39.4091 138.273 39.3266 139.093C39.244 139.912 39.325 140.74 39.5647 141.528C40.546 144.23 42.6754 145.458 45.8744 145.065C46.6004 144.995 47.3099 144.806 47.9744 144.505C50.3295 143.424 51.301 140.153 50.722 137.776C50.4361 136.601 49.7398 135.567 48.7591 134.861C47.7783 134.154 46.5777 133.822 45.374 133.925Z" fill="#D3D3D3"/>
<path d="M245.244 62.9424C243.515 66.1958 243.146 70.003 244.217 73.5286C245.642 77.3827 249.158 82.4317 258.129 81.4425C259.714 81.2618 261.261 80.828 262.71 80.1577C267.946 77.7553 270.153 70.6765 268.857 65.2421C268.217 62.6197 266.667 60.3104 264.483 58.7267C262.299 57.1429 259.624 56.3877 256.935 56.5959C252.392 56.8529 247.4 58.9983 245.244 62.9424ZM257.833 61.7605C259.554 61.6253 261.266 62.1066 262.665 63.1186C264.064 64.1305 265.058 65.6071 265.469 67.2848C266.303 70.7536 264.879 75.2629 261.517 76.8046C260.587 77.2252 259.594 77.49 258.578 77.5883C252.828 78.2178 250.57 75.0188 249.659 72.5522C249.322 71.4342 249.209 70.2609 249.326 69.0992C249.443 67.9375 249.787 66.8102 250.339 65.7817C251.699 63.2636 254.92 61.889 257.833 61.7605Z" fill="white"/>
<path d="M255.911 82.1997C248.391 82.1997 245.08 77.716 243.63 73.7462C242.508 70.0449 242.895 66.0494 244.708 62.6334C247.018 58.3424 252.51 56.2098 256.912 56.0299C259.747 55.8301 262.561 56.6361 264.861 58.3065C267.161 59.9769 268.799 62.4049 269.489 65.1643C270.772 70.6372 268.681 78.1785 262.983 80.7865C261.471 81.4708 259.859 81.9047 258.209 82.0712C257.446 82.1564 256.679 82.1993 255.911 82.1997ZM257.541 57.2761H256.977C252.921 57.456 247.891 59.3573 245.812 63.2243C244.993 64.7579 244.484 66.438 244.315 68.1684C244.145 69.8989 244.318 71.6458 244.823 73.3094C246.107 76.881 249.123 80.9278 255.963 80.9278C256.666 80.9275 257.369 80.8846 258.067 80.7994C259.584 80.6494 261.066 80.2545 262.456 79.6303C267.59 77.2792 269.45 70.4445 268.257 65.4983C267.697 63.0982 266.323 60.9668 264.369 59.4675C262.415 57.9681 260.002 57.1937 257.541 57.2761ZM257.182 78.3584C255.412 78.4534 253.66 77.9627 252.197 76.9619C250.733 75.9612 249.639 74.5061 249.084 72.8212C248.349 70.3951 248.603 67.7763 249.79 65.5369C251.433 62.5178 255.141 61.3101 257.823 61.1816C259.688 61.047 261.54 61.5748 263.054 62.6721C264.568 63.7695 265.647 65.3662 266.101 67.1813C266.961 70.7657 265.562 75.7118 261.802 77.4591C260.803 77.8977 259.742 78.1794 258.658 78.2942C258.144 78.2685 257.682 78.307 257.182 78.307V78.3584ZM257.875 62.4407C255.308 62.5563 252.203 63.7254 250.906 66.1407C250.394 67.0878 250.074 68.1275 249.966 69.1994C249.858 70.2712 249.964 71.3539 250.278 72.3844C251.561 75.9174 254.346 77.5233 258.529 77.0094C259.479 76.9181 260.407 76.6707 261.276 76.2771C264.356 74.8639 265.626 70.5858 264.869 67.4768C264.495 65.9401 263.584 64.5879 262.302 63.6644C261.019 62.7408 259.449 62.3068 257.875 62.4407Z" fill="#D3D3D3"/>
<path opacity="0.46" d="M212.783 177.564L138.67 144.526C138.078 144.263 137.544 143.886 137.098 143.416C136.652 142.947 136.303 142.394 136.071 141.789C135.839 141.185 135.729 140.54 135.746 139.893C135.763 139.245 135.908 138.608 136.172 138.016L168.821 64.7105C169.355 63.5181 170.34 62.5859 171.56 62.1177C172.78 61.6495 174.136 61.6835 175.331 62.2121L249.451 95.2262C250.043 95.49 250.578 95.8679 251.024 96.3382C251.47 96.8085 251.819 97.3621 252.051 97.9674C252.283 98.5726 252.393 99.2176 252.376 99.8656C252.359 100.514 252.214 101.152 251.95 101.744L219.324 175.065C219.06 175.66 218.681 176.197 218.209 176.645C217.737 177.093 217.181 177.443 216.573 177.675C215.965 177.908 215.317 178.017 214.667 177.998C214.016 177.979 213.376 177.831 212.783 177.564Z" fill="#D3D3D3"/>
<path d="M244.468 92.5528L175.506 61.8346C173.016 60.7256 170.099 61.8448 168.99 64.3343L138.272 133.296C137.163 135.786 138.282 138.703 140.772 139.812L209.734 170.53C212.223 171.639 215.14 170.52 216.249 168.03L246.967 99.0683C248.076 96.5788 246.957 93.6617 244.468 92.5528Z" fill="white"/>
<path d="M211.743 172.124C210.893 172.124 210.052 171.944 209.276 171.597L140.307 140.872C139.574 140.548 138.912 140.083 138.36 139.503C137.807 138.923 137.374 138.24 137.086 137.492C136.798 136.745 136.66 135.948 136.68 135.147C136.7 134.346 136.878 133.558 137.203 132.826L167.936 63.8335C168.261 63.1005 168.727 62.4387 169.307 61.8859C169.888 61.3332 170.572 60.9003 171.32 60.612C172.068 60.3237 172.865 60.1858 173.666 60.206C174.468 60.2263 175.257 60.4043 175.99 60.73L244.928 91.4862C246.4 92.1466 247.552 93.3616 248.133 94.8668C248.714 96.3721 248.678 98.046 248.031 99.5244L217.306 168.493C216.828 169.571 216.049 170.487 215.061 171.132C214.074 171.776 212.922 172.121 211.743 172.124ZM210.191 169.471C211.104 169.874 212.14 169.9 213.071 169.542C214.003 169.184 214.756 168.473 215.165 167.562L245.89 98.5934C246.293 97.6792 246.319 96.6426 245.962 95.7096C245.604 94.7765 244.892 94.0226 243.981 93.6122L175.005 62.8947C174.553 62.693 174.066 62.5823 173.571 62.5691C173.076 62.5558 172.584 62.6403 172.122 62.8175C171.66 62.9948 171.238 63.2615 170.879 63.6022C170.52 63.943 170.232 64.3512 170.031 64.8034L139.314 133.772C139.111 134.224 138.999 134.711 138.986 135.206C138.972 135.701 139.056 136.194 139.233 136.656C139.411 137.118 139.678 137.541 140.019 137.899C140.361 138.258 140.769 138.546 141.222 138.746L210.191 169.471Z" fill="#D3D3D3"/>
<path d="M234.429 100.142L176.588 74.3774L150.823 132.219L208.665 157.984L234.429 100.142Z" fill="#ECECEC"/>
<path d="M208.67 159.151C208.507 159.149 208.347 159.114 208.197 159.051L150.354 133.283C150.073 133.158 149.852 132.927 149.741 132.639C149.625 132.353 149.625 132.033 149.741 131.747L175.532 73.9201C175.595 73.7793 175.685 73.6523 175.797 73.5464C175.909 73.4405 176.041 73.3578 176.185 73.303C176.329 73.2482 176.483 73.2224 176.637 73.2271C176.791 73.2318 176.943 73.2669 177.084 73.3304L234.918 99.0977C235.059 99.1581 235.185 99.2463 235.291 99.357C235.396 99.4677 235.478 99.5985 235.531 99.7416C235.593 99.8824 235.624 100.034 235.624 100.188C235.624 100.341 235.593 100.493 235.531 100.634L209.733 158.492C209.636 158.691 209.484 158.858 209.296 158.974C209.108 159.091 208.891 159.152 208.67 159.151ZM152.364 131.631L208.08 156.459L232.909 100.743L177.2 75.9141L152.364 131.631Z" fill="#D3D3D3"/>
<path d="M156.197 120.388L169.046 110.201C169.841 109.572 170.775 109.142 171.771 108.949C172.766 108.755 173.794 108.804 174.766 109.089C175.739 109.375 176.63 109.89 177.362 110.591C178.095 111.292 178.649 112.159 178.977 113.118L181.693 121.087C181.942 121.818 182.358 122.482 182.906 123.026C183.454 123.57 184.12 123.981 184.853 124.226C185.586 124.471 186.365 124.543 187.131 124.437C187.896 124.331 188.626 124.05 189.265 123.616L203.487 113.941C204.752 113.079 206.22 112.564 207.745 112.445C209.27 112.327 210.8 112.609 212.182 113.265C213.565 113.921 214.751 114.927 215.624 116.184C216.497 117.44 217.026 118.903 217.159 120.427L218.548 136.069L208.632 158.329L150.797 132.562L156.197 120.388Z" fill="white"/>
<path d="M208.609 159.493C208.446 159.493 208.285 159.459 208.136 159.392L150.27 133.664C150.13 133.603 150.003 133.515 149.898 133.404C149.793 133.294 149.711 133.163 149.657 133.02C149.596 132.879 149.564 132.727 149.564 132.573C149.564 132.42 149.596 132.268 149.657 132.127L155.089 119.954C155.166 119.781 155.283 119.63 155.43 119.511L168.279 109.324C169.216 108.566 170.322 108.046 171.504 107.806C172.685 107.567 173.907 107.615 175.065 107.948C176.224 108.281 177.285 108.888 178.159 109.717C179.033 110.547 179.695 111.575 180.088 112.715L182.803 120.683C182.999 121.242 183.321 121.748 183.742 122.164C184.164 122.579 184.676 122.892 185.237 123.079C185.799 123.267 186.396 123.323 186.983 123.244C187.57 123.165 188.131 122.952 188.623 122.623L202.845 112.947C204.276 111.971 205.938 111.386 207.666 111.252C209.394 111.117 211.127 111.438 212.692 112.181C214.257 112.924 215.601 114.064 216.589 115.487C217.577 116.911 218.175 118.569 218.324 120.295L219.689 135.991C219.706 136.188 219.671 136.386 219.588 136.565L209.672 158.802C209.582 159.009 209.433 159.184 209.244 159.306C209.055 159.429 208.835 159.494 208.609 159.493ZM152.311 131.972L208.02 156.801L217.33 135.852L215.996 120.512C215.882 119.189 215.423 117.919 214.665 116.829C213.908 115.738 212.878 114.865 211.678 114.296C210.478 113.727 209.15 113.482 207.827 113.586C206.503 113.69 205.229 114.138 204.133 114.887L189.91 124.562C189.123 125.089 188.226 125.429 187.287 125.556C186.348 125.683 185.393 125.593 184.494 125.293C183.596 124.994 182.777 124.492 182.102 123.828C181.427 123.163 180.913 122.353 180.6 121.459L177.884 113.49C177.617 112.707 177.166 111.998 176.568 111.425C175.97 110.852 175.243 110.43 174.449 110.196C173.655 109.962 172.816 109.922 172.002 110.079C171.189 110.237 170.426 110.587 169.776 111.101L157.145 121.117L152.311 131.972Z" fill="#D3D3D3"/>
<path d="M198.306 107.842C197.739 109.119 196.807 110.199 195.626 110.946C194.445 111.693 193.069 112.073 191.673 112.037C190.276 112.002 188.921 111.553 187.78 110.747C186.638 109.942 185.762 108.815 185.261 107.511C184.76 106.207 184.657 104.783 184.965 103.421C185.273 102.058 185.979 100.817 186.993 99.8561C188.007 98.8947 189.283 98.2556 190.66 98.0198C192.037 97.7839 193.453 97.962 194.729 98.5313C196.438 99.2917 197.775 100.7 198.446 102.446C199.116 104.192 199.066 106.133 198.306 107.842Z" fill="white"/>
<path d="M191.858 113.204C190.081 113.207 188.349 112.636 186.923 111.575C185.497 110.514 184.452 109.02 183.944 107.316C183.437 105.612 183.494 103.79 184.107 102.121C184.72 100.453 185.857 99.0272 187.347 98.0575C188.837 97.0878 190.6 96.6259 192.374 96.7409C194.148 96.8558 195.838 97.5414 197.19 98.6953C198.542 99.8492 199.485 101.41 199.878 103.143C200.271 104.877 200.092 106.691 199.369 108.315C198.933 109.304 198.305 110.196 197.522 110.941C196.739 111.685 195.816 112.267 194.807 112.653C193.865 113.014 192.866 113.2 191.858 113.204ZM191.858 99.0746C190.797 99.0741 189.755 99.3601 188.843 99.9025C187.93 100.445 187.181 101.223 186.674 102.156C186.168 103.089 185.922 104.141 185.963 105.202C186.005 106.262 186.332 107.292 186.91 108.182C187.488 109.072 188.295 109.79 189.247 110.26C190.199 110.729 191.26 110.933 192.318 110.85C193.377 110.767 194.393 110.399 195.259 109.787C196.126 109.174 196.811 108.339 197.243 107.369C197.871 105.943 197.909 104.327 197.349 102.873C196.79 101.42 195.678 100.246 194.256 99.6099C193.503 99.2651 192.686 99.0827 191.858 99.0746Z" fill="#D3D3D3"/>
<path opacity="0.46" d="M136.863 44.5141L59.8223 69.9629C57.2345 70.8178 55.8297 73.6086 56.6845 76.1964L81.8535 152.389C82.7083 154.977 85.4991 156.382 88.0869 155.527L165.127 130.078C167.715 129.224 169.12 126.433 168.265 123.845L143.096 47.652C142.241 45.0642 139.45 43.6593 136.863 44.5141Z" fill="#D3D3D3"/>
<path d="M131.37 45.8567L59.6856 69.5362C57.0978 70.391 55.693 73.1818 56.5478 75.7696L80.2273 147.454C81.0822 150.042 83.873 151.446 86.4608 150.592L158.145 126.912C160.733 126.057 162.138 123.266 161.283 120.679L137.603 48.9945C136.748 46.4067 133.958 45.0018 131.37 45.8567Z" fill="white"/>
<path d="M84.9245 151.998C83.6416 151.998 82.3912 151.594 81.3508 150.843C80.3104 150.092 79.5329 149.033 79.1287 147.816L55.4485 76.1234C55.1972 75.3628 55.0982 74.5601 55.1572 73.7612C55.2161 72.9624 55.4319 72.1829 55.7922 71.4675C56.1524 70.752 56.6501 70.1145 57.2568 69.5914C57.8635 69.0683 58.5673 68.6699 59.328 68.4188L131.02 44.7387C132.555 44.2335 134.228 44.3584 135.671 45.0858C137.114 45.8132 138.21 47.0836 138.717 48.6181L162.405 120.31C162.656 121.071 162.755 121.874 162.696 122.672C162.637 123.471 162.421 124.251 162.061 124.966C161.701 125.682 161.203 126.319 160.597 126.842C159.99 127.365 159.286 127.764 158.525 128.015L86.8332 151.695C86.2171 151.897 85.5728 151.999 84.9245 151.998ZM132.921 46.7638C132.52 46.7638 132.122 46.8294 131.742 46.9577L60.0496 70.6379C59.1011 70.9534 58.3162 71.6318 57.8669 72.5247C57.4175 73.4176 57.3403 74.4521 57.6521 75.4018L81.3399 147.094C81.6554 148.042 82.3339 148.827 83.2268 149.277C84.1196 149.726 85.1542 149.803 86.1039 149.491L157.796 125.804C158.743 125.487 159.526 124.807 159.974 123.915C160.422 123.022 160.498 121.988 160.186 121.04L136.506 49.3475C136.255 48.5951 135.774 47.9408 135.13 47.477C134.487 47.0133 133.714 46.7638 132.921 46.7638Z" fill="#D3D3D3"/>
<path d="M129.045 58.2356L68.9199 78.0967L88.781 138.222L148.906 118.36L129.045 58.2356Z" fill="#ECECEC"/>
<path d="M88.7962 139.375C88.5537 139.376 88.3167 139.302 88.118 139.163C87.9193 139.024 87.7685 138.827 87.6866 138.599L67.8239 78.475C67.774 78.3297 67.7538 78.1758 67.7645 78.0226C67.7751 77.8693 67.8165 77.7197 67.886 77.5827C68.0275 77.309 68.2694 77.1005 68.561 77.0008L128.685 57.138C128.831 57.0898 128.985 57.0711 129.138 57.0831C129.291 57.0951 129.44 57.1375 129.577 57.2079C129.85 57.3463 130.059 57.5856 130.159 57.8751L150.022 117.999C150.069 118.146 150.087 118.302 150.074 118.457C150.061 118.612 150.017 118.762 149.944 118.899C149.872 119.037 149.773 119.158 149.653 119.257C149.533 119.355 149.394 119.429 149.246 119.473L89.1298 139.336C89.0209 139.364 88.9086 139.377 88.7962 139.375ZM70.3998 78.8552L89.5333 136.768L147.446 117.634L128.312 59.6907L70.3998 78.8552Z" fill="#D3D3D3"/>
<path d="M84.8008 125.843L87.4233 109.658C87.5881 108.657 87.9906 107.71 88.5969 106.898C89.2033 106.085 89.9958 105.429 90.9079 104.986C91.8201 104.543 92.8252 104.325 93.8389 104.351C94.8527 104.377 95.8455 104.645 96.734 105.134L104.097 109.192C104.774 109.566 105.527 109.778 106.3 109.813C107.072 109.848 107.842 109.704 108.549 109.392C109.256 109.081 109.882 108.61 110.378 108.017C110.873 107.423 111.225 106.724 111.406 105.972L115.41 89.2439C115.765 87.7559 116.504 86.387 117.553 85.2731C118.602 84.1592 119.924 83.3391 121.388 82.8943C122.851 82.4496 124.406 82.3955 125.897 82.7377C127.389 83.0798 128.764 83.8062 129.888 84.8446L141.417 95.4975L149.068 118.635L88.9751 138.497L84.8008 125.843Z" fill="white"/>
<path d="M88.9748 139.661C88.7328 139.664 88.496 139.591 88.2981 139.452C88.1003 139.312 87.9515 139.114 87.873 138.885L83.691 126.223C83.6292 126.046 83.6132 125.856 83.6444 125.672L86.298 109.487C86.4917 108.301 86.9674 107.179 87.685 106.216C88.4025 105.252 89.341 104.475 90.4215 103.949C91.502 103.424 92.6928 103.166 93.8939 103.196C95.0949 103.227 96.2711 103.546 97.3233 104.125L104.694 108.191C105.212 108.481 105.791 108.646 106.384 108.672C106.977 108.697 107.567 108.583 108.108 108.338C108.652 108.104 109.134 107.746 109.516 107.294C109.899 106.841 110.171 106.307 110.312 105.731L114.315 89.0033C114.716 87.3163 115.552 85.7637 116.74 84.5C117.927 83.2363 119.424 82.3055 121.083 81.8002C122.742 81.2949 124.504 81.2327 126.194 81.6198C127.885 82.0069 129.444 82.8297 130.718 84.0066L142.247 94.6518C142.394 94.7873 142.504 94.9583 142.565 95.1484L150.208 118.285C150.304 118.579 150.28 118.898 150.142 119.174C150.004 119.45 149.763 119.66 149.471 119.76L89.3472 139.622C89.2259 139.655 89.1002 139.668 88.9748 139.661ZM85.9876 125.749L89.7119 137.031L147.624 117.897L140.439 96.1725L129.135 85.7213C128.16 84.8194 126.967 84.1883 125.673 83.8909C124.379 83.5935 123.029 83.6402 121.759 84.0263C120.488 84.4123 119.341 85.1244 118.431 86.0915C117.522 87.0586 116.881 88.2471 116.573 89.5387L112.562 106.267C112.335 107.189 111.9 108.047 111.29 108.775C110.68 109.502 109.911 110.08 109.042 110.464C108.173 110.848 107.228 111.027 106.28 110.988C105.331 110.949 104.404 110.693 103.569 110.239L96.1983 106.174C95.4729 105.774 94.6621 105.554 93.8341 105.533C93.0061 105.512 92.1852 105.69 91.4402 106.051C90.6951 106.413 90.0479 106.949 89.5527 107.613C89.0576 108.277 88.729 109.05 88.5946 109.867L85.9876 125.749Z" fill="#D3D3D3"/>
<path d="M107.51 88.2271C107.947 89.5531 107.982 90.9789 107.609 92.3243C107.236 93.6697 106.472 94.8744 105.415 95.786C104.357 96.6976 103.053 97.2752 101.668 97.4458C100.282 97.6164 98.8766 97.3724 97.6296 96.7445C96.3826 96.1167 95.3497 95.1332 94.6615 93.9184C93.9733 92.7036 93.6607 91.3121 93.7632 89.9197C93.8657 88.5273 94.3788 87.1965 95.2374 86.0956C96.0961 84.9948 97.2619 84.1732 98.5875 83.7347C99.4683 83.4423 100.398 83.3266 101.324 83.3942C102.249 83.4619 103.152 83.7115 103.981 84.1289C104.81 84.5462 105.549 85.123 106.154 85.8263C106.76 86.5296 107.221 87.3454 107.51 88.2271Z" fill="white"/>
<path d="M100.8 98.6711C98.7238 98.6743 96.7229 97.8954 95.1956 96.4895C93.6683 95.0836 92.7267 93.1539 92.5584 91.0849C92.3901 89.0159 93.0075 86.9594 94.2875 85.3252C95.5675 83.691 97.4162 82.5989 99.4653 82.2666C101.514 81.9343 103.613 82.3862 105.344 83.5322C107.075 84.6782 108.311 86.4342 108.805 88.4504C109.299 90.4666 109.015 92.5949 108.011 94.4114C107.006 96.2279 105.354 97.5992 103.383 98.2521C102.55 98.5298 101.678 98.6713 100.8 98.6711ZM100.8 84.5421C99.3523 84.5371 97.9535 85.0639 96.869 86.0224C95.7845 86.9809 95.0898 88.3044 94.9169 89.7414C94.744 91.1784 95.105 92.6288 95.9312 93.8172C96.7575 95.0056 97.9914 95.8491 99.3987 96.1875C100.806 96.5259 102.288 96.3356 103.565 95.6528C104.841 94.97 105.822 93.8422 106.321 92.4838C106.82 91.1252 106.803 89.6306 106.273 88.2839C105.743 86.9371 104.737 85.8319 103.445 85.1784C102.631 84.7634 101.73 84.5455 100.815 84.5421H100.8Z" fill="#D3D3D3"/>
<path opacity="0.48" d="M232.341 37.5662L161.989 10.1798C159.449 9.19111 156.589 10.4485 155.601 12.9882L128.518 82.5587C127.529 85.0984 128.787 87.9587 131.326 88.9473L201.678 116.334C204.218 117.322 207.078 116.065 208.067 113.525L235.149 43.9548C236.138 41.4152 234.88 38.5549 232.341 37.5662Z" fill="#D3D3D3"/>
<path d="M227.571 35.2598L162.143 9.79011C159.604 8.80146 156.743 10.0588 155.755 12.5985L130.285 78.0261C129.296 80.5658 130.554 83.426 133.094 84.4147L198.521 109.884C201.061 110.873 203.921 109.616 204.91 107.076L230.379 41.6484C231.368 39.1087 230.111 36.2484 227.571 35.2598Z" fill="white"/>
<path d="M200.315 111.38C199.562 111.381 198.815 111.241 198.112 110.969L132.681 85.4965C131.176 84.9092 129.965 83.7483 129.314 82.2688C128.664 80.7892 128.628 79.1121 129.213 77.6057L154.678 12.175C155.265 10.6692 156.426 9.45782 157.905 8.80625C159.384 8.15468 161.061 8.11611 162.569 8.699L228.007 34.1714C229.511 34.7604 230.721 35.9215 231.371 37.4004C232.021 38.8794 232.059 40.5557 231.475 42.0622L206.003 107.493C205.557 108.639 204.775 109.623 203.761 110.316C202.746 111.01 201.545 111.381 200.315 111.38ZM198.958 108.835C199.889 109.196 200.925 109.173 201.84 108.771C202.754 108.37 203.473 107.623 203.838 106.694L229.303 41.2553C229.663 40.324 229.64 39.2878 229.239 38.3733C228.838 37.4588 228.091 36.7403 227.161 36.375L161.731 10.8715C160.799 10.5089 159.762 10.5308 158.847 10.9323C157.932 11.3339 157.214 12.0822 156.85 13.0129L131.378 78.4514C131.018 79.3827 131.042 80.4186 131.445 81.332C131.848 82.2454 132.597 82.9617 133.527 83.324L198.958 108.835Z" fill="#D3D3D3"/>
<path d="M218.78 42.9362L163.432 21.3901L141.886 76.7386L197.234 98.2846L218.78 42.9362Z" fill="#ECECEC"/>
<path d="M197.242 99.4468C197.099 99.4444 196.958 99.4182 196.823 99.3692L141.471 77.7995C141.329 77.7446 141.198 77.662 141.088 77.5564C140.977 77.4509 140.889 77.3245 140.828 77.1845C140.766 77.0445 140.733 76.8938 140.731 76.741C140.728 76.5882 140.756 76.4363 140.812 76.2943L162.351 20.9424C162.463 20.6555 162.684 20.4246 162.966 20.2997C163.248 20.1748 163.568 20.166 163.856 20.2751L219.208 41.8215C219.35 41.8765 219.481 41.9591 219.592 42.0645C219.702 42.1699 219.791 42.2961 219.853 42.4359C219.915 42.5757 219.949 42.7263 219.953 42.8792C219.956 43.032 219.93 43.1841 219.875 43.3268L198.329 98.6787C198.218 98.966 197.997 99.1976 197.716 99.3227C197.569 99.398 197.407 99.4404 197.242 99.4468ZM143.403 76.077L196.583 96.7778L217.284 43.5906L164.096 22.8898L143.403 76.077Z" fill="#D3D3D3"/>
<path d="M146.391 65.3855L157.975 55.2989C158.694 54.6725 159.553 54.2284 160.48 54.0041C161.407 53.7798 162.374 53.7819 163.3 54.0101C164.226 54.2384 165.084 54.6862 165.8 55.3156C166.517 55.9451 167.071 56.7377 167.417 57.6266L170.319 64.9665C170.586 65.6403 171.004 66.2436 171.542 66.7292C172.08 67.2149 172.722 67.5699 173.42 67.7666C174.117 67.9633 174.851 67.9964 175.563 67.8633C176.276 67.7302 176.948 67.4346 177.527 66.9993L190.422 57.2929C191.565 56.4282 192.915 55.8775 194.337 55.6955C195.758 55.5136 197.203 55.7068 198.527 56.2558C199.851 56.8049 201.008 57.6908 201.884 58.8255C202.76 59.9602 203.324 61.3042 203.519 62.7242L205.498 77.3186L197.203 98.6245L141.852 77.0781L146.391 65.3855Z" fill="white"/>
<path d="M197.203 99.7727C197.06 99.7734 196.917 99.747 196.784 99.6951L141.432 78.1487C141.145 78.0361 140.915 77.8145 140.791 77.5323C140.668 77.2502 140.661 76.9305 140.772 76.6434L145.304 65.0051C145.372 64.8294 145.481 64.6725 145.622 64.5473L157.252 54.4065C158.11 53.6586 159.135 53.1274 160.24 52.8574C161.346 52.5875 162.5 52.5866 163.606 52.8549C164.712 53.1232 165.737 53.6528 166.596 54.3994C167.455 55.1459 168.122 56.0876 168.542 57.1453L171.443 64.493C171.639 65.0014 171.952 65.4566 172.357 65.8218C172.761 66.1871 173.245 66.4522 173.771 66.5957C174.297 66.7479 174.852 66.7753 175.391 66.6756C175.93 66.576 176.438 66.352 176.875 66.0215L189.77 56.3151C191.076 55.3303 192.617 54.7039 194.24 54.4979C195.862 54.2919 197.511 54.5134 199.022 55.1407C200.532 55.7679 201.853 56.7789 202.853 58.0737C203.853 59.3684 204.497 60.9019 204.721 62.5223L206.7 77.1167C206.724 77.3109 206.7 77.508 206.63 77.6909L198.336 98.9968C198.254 99.2295 198.1 99.4301 197.896 99.5696C197.692 99.7091 197.45 99.7802 197.203 99.7727ZM143.364 76.4029L196.543 97.1036L204.302 77.1633L202.37 62.8636C202.196 61.6475 201.708 60.4978 200.954 59.5276C200.2 58.5574 199.207 57.8002 198.072 57.3305C196.936 56.8607 195.698 56.6946 194.479 56.8486C193.261 57.0025 192.103 57.4711 191.12 58.2083L178.201 67.8759C177.482 68.4143 176.649 68.7806 175.766 68.9465C174.883 69.1125 173.974 69.0737 173.109 68.8331C172.243 68.5926 171.444 68.1567 170.773 67.5589C170.103 66.9612 169.578 66.2176 169.24 65.3853L166.338 58.0454C166.057 57.3321 165.61 56.6968 165.032 56.193C164.454 55.6892 163.764 55.3317 163.019 55.1507C162.275 54.9696 161.497 54.9704 160.753 55.1528C160.008 55.3352 159.319 55.6939 158.742 56.1988L147.368 66.1379L143.364 76.4029Z" fill="#D3D3D3"/>
<path d="M185.284 51.7683C184.815 52.9947 183.993 54.0542 182.921 54.8123C181.849 55.5704 180.576 55.993 179.264 56.0264C177.951 56.0598 176.658 55.7026 175.549 55C174.44 54.2974 173.565 53.2812 173.034 52.0803C172.503 50.8793 172.341 49.5479 172.569 48.2548C172.796 46.9617 173.403 45.7653 174.311 44.8175C175.22 43.8696 176.389 43.213 177.672 42.931C178.954 42.649 180.291 42.7543 181.513 43.2335C183.14 43.8714 184.449 45.1262 185.156 46.7247C185.862 48.3231 185.908 50.1359 185.284 51.7683Z" fill="white"/>
<path d="M179.118 57.153C177.462 57.1496 175.851 56.6166 174.52 55.632C173.189 54.6473 172.207 53.2626 171.719 51.6804C171.232 50.0981 171.263 48.4013 171.808 46.8379C172.354 45.2746 173.385 43.9268 174.751 42.9915C176.118 42.0563 177.747 41.5826 179.402 41.6399C181.057 41.6971 182.65 42.2823 183.948 43.3097C185.247 44.3372 186.183 45.753 186.619 47.3503C187.055 48.9476 186.969 50.6426 186.373 52.1873C185.803 53.6486 184.806 54.9041 183.512 55.79C182.218 56.6758 180.686 57.1509 179.118 57.153ZM179.118 43.9086C178.32 43.9259 177.537 44.1187 176.822 44.4733C176.107 44.8279 175.48 45.3355 174.983 45.9601C174.487 46.5847 174.135 47.3109 173.951 48.0872C173.767 48.8634 173.757 49.6707 173.92 50.4515C174.083 51.2322 174.417 51.9674 174.897 52.6048C175.376 53.2421 175.991 53.766 176.696 54.1391C177.401 54.5122 178.179 54.7254 178.976 54.7635C179.773 54.8017 180.569 54.6638 181.306 54.3598C181.964 54.0747 182.558 53.6607 183.054 53.1424C183.55 52.624 183.937 52.0118 184.192 51.3416C184.455 50.6745 184.583 49.962 184.57 49.2451C184.556 48.5282 184.4 47.8212 184.111 47.1648C183.823 46.5084 183.407 45.9156 182.888 45.4207C182.37 44.9257 181.758 44.5384 181.089 44.281C180.461 44.0346 179.792 43.9082 179.118 43.9086Z" fill="#D3D3D3"/>
</svg>
