<svg width="32" height="35" viewBox="0 0 32 35" fill="none" xmlns="http://www.w3.org/2000/svg">
<g clip-path="url(#clip0_815_211)">
<path d="M21.6508 5.15533C21.6508 5.32456 21.7946 5.46841 21.9638 5.46841H23.9269L21.6508 3.21764V5.15533ZM25.9323 15.4869C25.4754 15.4869 25.1031 15.1146 25.1031 14.6661V7.10995H21.9638C20.8723 7.10995 19.9923 6.23841 19.9923 5.16379V2.05841H3.00999C2.66306 2.05841 2.3923 2.33764 2.3923 2.6761V6.22995C2.3923 6.67841 2.01999 7.05072 1.56306 7.05072C1.10614 7.05072 0.725372 6.67841 0.725372 6.22995V2.6761C0.725372 1.43225 1.74922 0.41687 3.00999 0.41687H20.2292C20.8384 0.41687 21.4138 0.653793 21.8454 1.07687L26.1015 5.28226C26.5331 5.70533 26.77 6.27226 26.77 6.87302V14.6661C26.77 15.1146 26.3977 15.4869 25.9408 15.4869H25.9323Z" fill="#749F82"/>
<path d="M7.33384 11.4C6.87692 11.4 6.50461 11.0277 6.50461 10.5792C6.50461 10.1307 6.87692 9.75842 7.33384 9.75842H18.3508C18.8077 9.75842 19.18 10.1307 19.18 10.5792C19.18 11.0277 18.8077 11.4 18.3508 11.4H7.33384Z" fill="#749F82"/>
<path d="M7.33384 17.2469C6.87692 17.2469 6.50461 16.8746 6.50461 16.4261C6.50461 15.9777 6.87692 15.6053 7.33384 15.6053H17.6738C18.1308 15.6053 18.5031 15.9777 18.5031 16.4261C18.5031 16.8746 18.1308 17.2469 17.6738 17.2469H7.33384Z" fill="#749F82"/>
<path d="M7.33384 23.1022C6.87692 23.1022 6.50461 22.7299 6.50461 22.2815C6.50461 21.833 6.87692 21.4607 7.33384 21.4607H15.9815C16.4385 21.4607 16.8108 21.833 16.8108 22.2815C16.8108 22.7299 16.4385 23.1022 15.9815 23.1022H7.33384Z" fill="#749F82"/>
<path d="M26.5077 18.2453C24.46 18.2453 22.7931 19.9122 22.7931 21.9599C22.7931 24.0076 24.46 25.6745 26.5077 25.6745C28.5554 25.6745 30.2223 24.0076 30.2223 21.9599C30.2223 19.9122 28.5554 18.2453 26.5077 18.2453V18.2453ZM26.5077 27.2653C23.58 27.2653 21.2023 24.8876 21.2023 21.9599C21.2023 19.0322 23.58 16.6545 26.5077 16.6545C29.4354 16.6545 31.8131 19.0322 31.8131 21.9599C31.8131 24.8876 29.4354 27.2653 26.5077 27.2653Z" fill="#749F82"/>
<path d="M24.8408 22.9331C24.5192 22.9331 24.2484 22.6708 24.2484 22.3408C24.2484 22.0108 24.5108 21.7485 24.8408 21.7485H26.1692V19.9546C26.1692 19.6331 26.4315 19.3623 26.7615 19.3623C27.0915 19.3623 27.3538 19.6246 27.3538 19.9546V22.3408C27.3538 22.6623 27.0915 22.9331 26.7615 22.9331H24.8408Z" fill="#749F82"/>
<path d="M26.7531 29.3215C26.7531 28.873 26.3808 28.5007 25.9238 28.5007C25.4669 28.5007 25.0946 28.873 25.0946 29.3215V31.3522L22.7761 32.6553L20.2377 31.2338C19.9415 31.0645 19.5777 31.0645 19.29 31.2338L16.7515 32.6553L14.2131 31.2338C13.9169 31.0645 13.5615 31.0645 13.2654 31.2338L10.7269 32.6553L8.18846 31.2338C7.8923 31.0645 7.53692 31.0645 7.24077 31.2338L4.7023 32.6553L2.37538 31.3522V8.50607C2.37538 8.05761 2.00307 7.6853 1.54615 7.6853C1.08923 7.6853 0.716919 8.05761 0.716919 8.50607V32.0122H0.72538C0.699996 32.3761 0.877688 32.7399 1.21615 32.9261L4.22846 34.6184C4.52461 34.7876 4.88 34.7876 5.17615 34.6184L7.71461 33.1968L10.2531 34.6184C10.5492 34.7876 10.9046 34.7876 11.2008 34.6184L13.7392 33.1968L16.2777 34.6184C16.5738 34.7876 16.9292 34.7876 17.2254 34.6184L19.7638 33.1968L22.3023 34.6184C22.4462 34.703 22.6154 34.7453 22.7761 34.7453C22.9369 34.7453 23.1061 34.703 23.25 34.6184L26.2708 32.9261C26.6092 32.7399 26.7785 32.3761 26.7615 32.0122V29.3215H26.7531Z" fill="#749F82"/>
</g>
<defs>
<clipPath id="clip0_815_211">
<rect width="31.1046" height="34.32" fill="white" transform="translate(0.716919 0.41687)"/>
</clipPath>
</defs>
</svg>
