<svg width="134" height="90" viewBox="0 0 134 90" fill="none" xmlns="http://www.w3.org/2000/svg">
<path d="M87.879 74.2549C93.5178 64.6248 105.622 59.1887 116.994 61.1943C121.145 61.9494 125.285 63.5641 129.46 63.1839C126.995 68.9771 124.18 75.1715 118.56 78.1557C115.71 79.5189 112.609 80.276 109.453 80.3792C101.741 81.1773 94.0189 78.9853 87.879 74.2549Z" fill="#FFB767"/>
<path d="M91.4047 77.3829C90.0384 76.6126 88.7261 75.7502 87.4769 74.8015C87.3447 74.7006 87.2537 74.555 87.2209 74.3918C87.1881 74.2287 87.2157 74.0591 87.2986 73.9146C90.358 68.9558 94.8341 65.0289 100.147 62.6425C105.46 60.2561 111.366 59.5202 117.099 60.5301C118.42 60.7522 119.742 61.085 121.029 61.3977C123.738 62.2281 126.566 62.6025 129.399 62.5058C129.516 62.5093 129.63 62.541 129.732 62.5983C129.834 62.6555 129.921 62.7365 129.985 62.8345C130.049 62.9316 130.089 63.0432 130.101 63.1594C130.112 63.2756 130.095 63.3929 130.051 63.501C127.891 68.5837 124.867 75.5423 118.841 78.8021C115.915 80.2236 112.722 81.0067 109.472 81.0993C103.211 81.7186 96.9109 80.4227 91.4047 77.3829ZM88.7695 74.0947C94.8304 78.5338 101.223 80.2795 109.404 79.7077C112.465 79.6321 115.475 78.9075 118.236 77.5818C123.17 74.9522 125.922 69.6825 128.416 63.9214C125.8 63.8535 123.203 63.4542 120.688 62.7331C119.433 62.4219 118.134 62.1025 116.862 61.8765C106.069 59.9598 94.3602 65.0828 88.7695 74.0947Z" fill="#F18916"/>
<path d="M108.225 70.5481C108.169 70.5396 108.118 70.511 108.082 70.4676C108.068 70.4107 108.077 70.3509 108.105 70.2999C108.134 70.2489 108.18 70.2105 108.236 70.1923C113.666 68.612 119.208 67.1109 124.724 65.7682C124.753 65.7597 124.782 65.757 124.811 65.7602C124.841 65.7634 124.869 65.7726 124.895 65.7869C124.92 65.8013 124.943 65.8207 124.961 65.844C124.979 65.8673 124.992 65.894 124.999 65.9224C125.016 65.9819 125.008 66.0455 124.978 66.0993C124.948 66.1532 124.898 66.1929 124.838 66.2097C119.358 67.5725 113.81 69.055 108.368 70.6286C108.312 70.6214 108.261 70.5925 108.225 70.5481Z" fill="#F18916"/>
<path d="M113.44 52.6123C114.189 56.7264 114.89 61.2171 112.891 64.8998C111.356 67.3472 109.13 69.2827 106.493 70.4606C103.947 71.7685 98.662 73.3893 96.2365 74.8731C97.4052 70.0236 97.7763 64.3905 100.647 59.8619C105.085 52.9778 110.412 53.1096 113.44 52.6123Z" fill="#FFB767"/>
<path d="M96.2655 75.5233C96.3669 75.5196 96.4653 75.4883 96.5502 75.4326C98.4039 74.4551 100.327 73.6154 102.304 72.9203C104.028 72.2546 105.649 71.6243 106.796 71.0476C109.561 69.804 111.884 67.7507 113.459 65.1583C115.493 61.4194 114.908 57.0518 114.065 52.4535C114.037 52.2853 113.944 52.1347 113.806 52.0344C113.668 51.9341 113.497 51.8921 113.328 51.9175L112.212 52.079C109.731 52.2117 107.322 52.9607 105.203 54.2584C103.083 55.5562 101.32 57.3618 100.072 59.5124C97.8794 62.9456 97.1039 66.9499 96.3711 70.8309C96.1141 72.1833 95.8756 73.441 95.5821 74.6768C95.549 74.8001 95.5546 74.9306 95.5981 75.0507C95.6416 75.1707 95.7209 75.2745 95.8253 75.3479C95.9447 75.4598 96.1019 75.5225 96.2655 75.5233ZM112.905 53.3505C113.64 57.4525 114.054 61.3822 112.319 64.5768C110.859 66.9206 108.729 68.7708 106.206 69.8871C105.122 70.4318 103.527 71.0466 101.829 71.7101C100.131 72.3736 98.5087 72.9906 97.155 73.6381C97.3371 72.811 97.4905 71.9597 97.6595 71.1337C98.376 67.3738 99.1089 63.4929 101.174 60.2702C102.318 58.2766 103.946 56.6039 105.907 55.4068C107.867 54.2096 110.098 53.5266 112.393 53.4208L112.905 53.3505Z" fill="#F18916"/>
<path d="M99.179 70.7116C99.2118 70.7098 99.2439 70.7004 99.2725 70.6841C99.3011 70.6678 99.3255 70.6451 99.3438 70.6177C102.883 65.3516 106.878 60.4078 111.284 55.8436C111.324 55.8031 111.347 55.7481 111.347 55.6907C111.347 55.6333 111.325 55.5782 111.284 55.5375C111.244 55.4969 111.189 55.474 111.131 55.4739C111.074 55.4738 111.019 55.4964 110.978 55.537C106.543 60.12 102.519 65.084 98.9507 70.3718C98.9162 70.4164 98.8997 70.4724 98.9045 70.5287C98.9093 70.585 98.935 70.6374 98.9766 70.6756C99.002 70.7026 99.0354 70.7207 99.0718 70.7271C99.1083 70.7336 99.1459 70.7282 99.179 70.7116Z" fill="#F18916"/>
<path d="M35.8168 10.392C27.2418 10.2992 25.7818 17.1666 25.805 20.1943C25.805 22.9552 26.8942 30.2171 36.037 30.3099C44.7974 30.4143 46.9759 23.3496 45.8982 18.4195C45.2609 15.647 43.5112 10.4732 35.8168 10.392Z" fill="white"/>
<path d="M36.1996 30.8903H35.991C26.095 30.7743 25.2375 22.6888 25.2028 20.2063C25.1548 17.3752 26.1962 14.6339 28.1113 12.5501C29.1352 11.5939 30.3445 10.8585 31.6641 10.3895C32.9837 9.92059 34.3855 9.72812 35.7825 9.82403C41.5764 9.88203 45.2033 12.7357 46.4201 18.3039C46.7809 19.8704 46.7957 21.497 46.4634 23.0698C46.1312 24.6427 45.4599 26.1239 44.4965 27.4102C43.467 28.5813 42.1853 29.5031 40.7481 30.106C39.3108 30.7088 37.7555 30.977 36.1996 30.8903ZM35.6434 10.9608C34.4246 10.8876 33.2037 11.0627 32.0545 11.4754C30.9052 11.8882 29.8515 12.53 28.9572 13.3621C27.2538 15.2237 26.3324 17.6707 26.3847 20.1947C26.3847 23.0368 27.416 29.649 36.0374 29.7418C37.4551 29.8519 38.8791 29.634 40.1993 29.105C41.5194 28.5759 42.7003 27.75 43.6506 26.6909C44.5035 25.541 45.0965 24.2192 45.3886 22.8171C45.6808 21.415 45.665 19.9661 45.3424 18.5707C44.2416 13.5245 41.1244 11.0421 35.8056 10.9841L35.6434 10.9608Z" fill="#F18916"/>
<path d="M36.5701 15.6829C36.5198 15.683 36.4713 15.6638 36.4347 15.6293C36.3981 15.5948 36.376 15.5476 36.373 15.4973V13.4789C36.3836 13.4361 36.4082 13.3981 36.4429 13.371C36.4775 13.3438 36.5203 13.3291 36.5643 13.3291C36.6083 13.3291 36.651 13.3438 36.6856 13.371C36.7203 13.3981 36.7449 13.4361 36.7555 13.4789V15.4973C36.7556 15.5477 36.7364 15.5962 36.7019 15.6328C36.6675 15.6695 36.6203 15.6916 36.5701 15.6945V15.6829Z" fill="#F18916"/>
<path d="M40.4987 18.1521C40.4658 18.1524 40.4335 18.144 40.405 18.1276C40.3765 18.1113 40.3528 18.0877 40.3364 18.0593C40.3217 18.0383 40.3115 18.0145 40.3064 17.9893C40.3013 17.9642 40.3015 17.9383 40.307 17.9132C40.3124 17.8881 40.323 17.8644 40.338 17.8437C40.3531 17.8229 40.3722 17.8055 40.3943 17.7925C40.9999 17.4197 41.6267 17.0827 42.2716 16.7833C42.2944 16.7739 42.3188 16.7691 42.3435 16.7693C42.3681 16.7695 42.3925 16.7746 42.4151 16.7843C42.4378 16.794 42.4583 16.8082 42.4754 16.8259C42.4926 16.8437 42.506 16.8647 42.5149 16.8877C42.5264 16.9095 42.533 16.9335 42.5345 16.9581C42.536 16.9827 42.5322 17.0073 42.5234 17.0304C42.5146 17.0534 42.5011 17.0743 42.4836 17.0917C42.4662 17.1091 42.4453 17.1226 42.4222 17.1313C41.794 17.4254 41.1827 17.7546 40.5914 18.1173C40.579 18.129 40.5645 18.1381 40.5485 18.1441C40.5326 18.1501 40.5157 18.1528 40.4987 18.1521Z" fill="#F18916"/>
<path d="M42.3515 23.8251H42.2588L40.0919 22.6651C40.0695 22.654 40.0495 22.6386 40.0332 22.6197C40.0169 22.6007 40.0046 22.5786 39.997 22.5548C39.9894 22.531 39.9867 22.5058 39.9891 22.4809C39.9915 22.456 39.9989 22.4318 40.0108 22.4099C40.0218 22.3874 40.0373 22.3674 40.0562 22.3511C40.0751 22.3348 40.0972 22.3225 40.121 22.3149C40.1448 22.3073 40.1699 22.3046 40.1948 22.307C40.2196 22.3094 40.2438 22.3167 40.2657 22.3287L42.4326 23.4887C42.4551 23.4998 42.475 23.5152 42.4913 23.5341C42.5077 23.5531 42.5199 23.5752 42.5275 23.599C42.5351 23.6228 42.5378 23.648 42.5354 23.6729C42.5331 23.6978 42.5257 23.722 42.5138 23.7439C42.4959 23.7702 42.4717 23.7915 42.4433 23.8057C42.4148 23.82 42.3832 23.8266 42.3515 23.8251Z" fill="#F18916"/>
<path d="M37.5675 27.6416C37.5258 27.641 37.4855 27.6272 37.4522 27.6022C37.4189 27.5772 37.3943 27.5422 37.3821 27.5024C37.1967 26.8025 37.0687 26.0887 36.9997 25.3679C36.9964 25.3435 36.9981 25.3187 37.0045 25.295C37.0109 25.2712 37.022 25.2489 37.0371 25.2295C37.0522 25.2101 37.071 25.1938 37.0924 25.1817C37.1138 25.1697 37.1375 25.162 37.1619 25.1591C37.2123 25.1558 37.2621 25.172 37.3009 25.2044C37.3397 25.2368 37.3646 25.2829 37.3705 25.3331C37.4396 26.031 37.5675 26.7217 37.7529 27.398C37.7598 27.4224 37.7616 27.4479 37.7583 27.473C37.7549 27.4982 37.7465 27.5223 37.7335 27.5441C37.7205 27.5658 37.7031 27.5847 37.6825 27.5994C37.6619 27.6142 37.6386 27.6246 37.6138 27.63L37.5675 27.6416Z" fill="#F18916"/>
<path d="M31.6807 26.5985H31.588C31.5449 26.574 31.5126 26.5341 31.4975 26.4867C31.4825 26.4394 31.4859 26.3882 31.5069 26.3433C31.8988 25.5693 32.3645 24.835 32.8974 24.1508C32.9147 24.1329 32.9354 24.1187 32.9583 24.109C32.9812 24.0992 33.0059 24.0942 33.0307 24.0942C33.0556 24.0942 33.0802 24.0992 33.1031 24.109C33.126 24.1187 33.1467 24.1329 33.164 24.1508C33.1835 24.1671 33.1991 24.1875 33.2099 24.2106C33.2206 24.2336 33.2262 24.2588 33.2262 24.2842C33.2262 24.3096 33.2206 24.3348 33.2099 24.3578C33.1991 24.3809 33.1835 24.4013 33.164 24.4176C32.6429 25.0744 32.1887 25.7817 31.8082 26.5289C31.7932 26.549 31.7741 26.5656 31.7521 26.5776C31.7301 26.5896 31.7057 26.5968 31.6807 26.5985Z" fill="#F18916"/>
<path d="M29.2712 21.2257C29.2258 21.2261 29.1818 21.2097 29.1476 21.1798C29.1134 21.1499 29.0914 21.1084 29.0858 21.0633C29.0808 21.0396 29.0808 21.015 29.0858 20.9913C29.0908 20.9676 29.1008 20.9452 29.1149 20.9255C29.1291 20.9059 29.1472 20.8894 29.1682 20.8771C29.1891 20.8649 29.2123 20.8572 29.2364 20.8545L31.4033 20.5297C31.4277 20.5247 31.4529 20.5246 31.4773 20.5295C31.5017 20.5345 31.5248 20.5442 31.5454 20.5583C31.5659 20.5724 31.5834 20.5905 31.5968 20.6115C31.6103 20.6324 31.6194 20.6559 31.6235 20.6805C31.6302 20.7311 31.6171 20.7824 31.5868 20.8235C31.5565 20.8646 31.5115 20.8923 31.4613 20.9009L29.2943 21.2257H29.2712Z" fill="#F18916"/>
<path d="M32.0165 17.1552C31.9879 17.1545 31.9598 17.148 31.9339 17.136C31.908 17.124 31.8848 17.1069 31.8658 17.0856C31.3212 16.4823 30.765 15.8559 30.2435 15.2179C30.2276 15.1989 30.2155 15.1769 30.208 15.1531C30.2005 15.1294 30.1978 15.1045 30.1999 15.0797C30.2021 15.0549 30.2091 15.0308 30.2205 15.0088C30.232 14.9867 30.2477 14.9671 30.2667 14.9511C30.2857 14.9351 30.3077 14.923 30.3314 14.9155C30.3551 14.908 30.38 14.9053 30.4048 14.9075C30.4295 14.9096 30.4536 14.9166 30.4756 14.9281C30.4977 14.9396 30.5173 14.9552 30.5332 14.9743C31.0547 15.6123 31.5993 16.2387 32.1555 16.8304C32.1889 16.8667 32.2074 16.9144 32.2074 16.9638C32.2074 17.0132 32.1889 17.0608 32.1555 17.0972C32.118 17.1332 32.0684 17.1538 32.0165 17.1552Z" fill="#F18916"/>
<path d="M17.7199 44.5247C17.0842 44.5218 16.4719 44.7649 16.0109 45.2032C15.8015 45.4403 15.6485 45.7219 15.5635 46.0268C15.4784 46.3316 15.4635 46.6518 15.5198 46.9633C15.5916 47.3219 15.7463 47.6586 15.9716 47.9465C16.2241 48.3056 16.5619 48.5961 16.9546 48.7918C17.3473 48.9875 17.7825 49.0822 18.2209 49.0675C18.5118 49.0513 18.7963 48.9748 19.0561 48.8427C19.3159 48.7107 19.5455 48.526 19.7302 48.3004C19.9149 48.0748 20.0508 47.8132 20.1291 47.5322C20.2075 47.2513 20.2266 46.957 20.1853 46.6683C20.1597 46.3433 20.066 46.0273 19.9104 45.741C19.7547 45.4547 19.5405 45.2044 19.2817 45.0065C18.8263 44.6822 18.2787 44.5133 17.7199 44.5247Z" fill="white"/>
<path d="M18.0526 49.5307C17.5688 49.5126 17.0954 49.3846 16.6682 49.1563C16.2411 48.928 15.8715 48.6055 15.5872 48.2131C15.3121 47.8622 15.1236 47.4511 15.0372 47.0135C14.9715 46.628 14.993 46.2327 15.1001 45.8566C15.2072 45.4805 15.3972 45.1333 15.656 44.8405C15.9234 44.5742 16.2406 44.3633 16.5895 44.2198C16.9383 44.0764 17.312 44.0033 17.6892 44.0047C18.3927 43.9655 19.0878 44.1742 19.6536 44.5946C19.9656 44.836 20.2238 45.14 20.4116 45.4871C20.5993 45.8342 20.7125 46.2168 20.7439 46.6103C20.7997 46.9678 20.7791 47.333 20.6835 47.6818C20.5878 48.0307 20.4193 48.3552 20.189 48.634C19.9588 48.9129 19.6721 49.1396 19.3478 49.2992C19.0235 49.4589 18.6691 49.5478 18.308 49.5602L18.0526 49.5307ZM17.7481 44.9683C17.2397 44.9572 16.7467 45.1441 16.373 45.4894C16.2115 45.6703 16.0931 45.8855 16.0267 46.1189C15.9604 46.3522 15.9478 46.5976 15.99 46.8365C16.0498 47.126 16.174 47.3982 16.3534 47.633C16.5585 47.9256 16.8325 48.163 17.1512 48.3242C17.4698 48.4854 17.8233 48.5655 18.1803 48.5572C18.4135 48.5552 18.6435 48.5022 18.8541 48.402C19.0647 48.3017 19.2509 48.1566 19.3996 47.9768C19.5484 47.797 19.6561 47.5868 19.7152 47.361C19.7744 47.1351 19.7835 46.8991 19.742 46.6693C19.7204 46.4133 19.6455 46.1647 19.522 45.9394C19.3985 45.7142 19.2292 45.5173 19.025 45.3616C18.6486 45.1089 18.2008 44.9847 17.7481 45.0076V44.9683Z" fill="#F18916"/>
<path d="M126.921 45.5247C126.285 45.5218 125.673 45.7649 125.212 46.2032C125.003 46.4403 124.85 46.7219 124.765 47.0268C124.68 47.3316 124.665 47.6518 124.721 47.9633C124.793 48.3219 124.947 48.6586 125.173 48.9465C125.425 49.3056 125.763 49.5961 126.156 49.7918C126.548 49.9875 126.984 50.0822 127.422 50.0675C127.713 50.0513 127.997 49.9748 128.257 49.8427C128.517 49.7107 128.747 49.526 128.931 49.3004C129.116 49.0748 129.252 48.8132 129.33 48.5322C129.409 48.2513 129.428 47.957 129.386 47.6683C129.361 47.3433 129.267 47.0273 129.112 46.741C128.956 46.4547 128.742 46.2044 128.483 46.0065C128.027 45.6822 127.48 45.5133 126.921 45.5247Z" fill="white"/>
<path d="M127.254 50.5307C126.77 50.5126 126.297 50.3846 125.869 50.1563C125.442 49.928 125.073 49.6055 124.788 49.2131C124.513 48.8622 124.325 48.4511 124.238 48.0135C124.173 47.628 124.194 47.2327 124.301 46.8566C124.408 46.4805 124.598 46.1333 124.857 45.8405C125.125 45.5742 125.442 45.3633 125.791 45.2198C126.14 45.0764 126.513 45.0033 126.89 45.0047C127.594 44.9655 128.289 45.1742 128.855 45.5946C129.167 45.836 129.425 46.14 129.613 46.4871C129.801 46.8342 129.914 47.2168 129.945 47.6103C130.001 47.9678 129.98 48.333 129.885 48.6818C129.789 49.0307 129.62 49.3552 129.39 49.634C129.16 49.9129 128.873 50.1396 128.549 50.2992C128.225 50.4589 127.87 50.5478 127.509 50.5602L127.254 50.5307ZM126.949 45.9683C126.441 45.9572 125.948 46.1441 125.574 46.4894C125.413 46.6703 125.294 46.8855 125.228 47.1189C125.162 47.3522 125.149 47.5976 125.191 47.8365C125.251 48.126 125.375 48.3982 125.555 48.633C125.76 48.9256 126.034 49.163 126.352 49.3242C126.671 49.4854 127.024 49.5655 127.381 49.5572C127.615 49.5552 127.845 49.5022 128.055 49.402C128.266 49.3017 128.452 49.1566 128.601 48.9768C128.75 48.797 128.857 48.5868 128.916 48.361C128.976 48.1351 128.985 47.8991 128.943 47.6693C128.922 47.4133 128.847 47.1647 128.723 46.9394C128.6 46.7142 128.43 46.5173 128.226 46.3616C127.85 46.1089 127.402 45.9847 126.949 46.0076V45.9683Z" fill="#F18916"/>
<path d="M113.73 8.07686C112.463 8.06889 111.242 8.55155 110.322 9.42395C109.902 9.89937 109.595 10.4642 109.425 11.0757C109.255 11.6872 109.226 12.3295 109.34 12.9539C109.491 13.6685 109.8 14.3403 110.244 14.9205C110.755 15.6338 111.433 16.2104 112.22 16.5996C113.006 16.9888 113.875 17.1786 114.752 17.1525C115.341 17.1325 115.919 16.9883 116.448 16.7292C116.977 16.4701 117.446 16.102 117.824 15.649C118.201 15.196 118.478 14.6684 118.638 14.1006C118.798 13.5328 118.836 12.9376 118.75 12.3541C118.699 11.704 118.512 11.0719 118.2 10.4992C117.889 9.92645 117.46 9.42602 116.942 9.03064C116.013 8.35166 114.879 8.01473 113.73 8.07686Z" fill="white"/>
<path d="M114.399 17.6641C113.506 17.6295 112.632 17.3919 111.844 16.9694C111.056 16.547 110.375 15.9506 109.851 15.2256C109.357 14.5852 109.02 13.8374 108.869 13.0427C108.748 12.3457 108.784 11.6304 108.976 10.9496C109.169 10.2688 109.511 9.63997 109.979 9.10957C110.471 8.62521 111.055 8.243 111.695 7.98483C112.336 7.72667 113.021 7.59763 113.711 7.60515C114.974 7.5499 116.218 7.92802 117.237 8.67692C117.803 9.11857 118.27 9.67398 118.609 10.3074C118.947 10.9408 119.149 11.6381 119.202 12.3544C119.359 14.7142 118.269 17.3495 114.772 17.6641H114.399ZM113.76 8.55893C113.195 8.54467 112.632 8.64243 112.104 8.84661C111.577 9.0508 111.095 9.35737 110.686 9.74869C110.315 10.1689 110.043 10.6671 109.89 11.2066C109.737 11.746 109.707 12.313 109.802 12.8657C109.939 13.5119 110.217 14.1197 110.617 14.6454C111.082 15.2922 111.696 15.8163 112.408 16.1726C113.12 16.5289 113.908 16.7067 114.703 16.6906C115.231 16.6794 115.75 16.5547 116.225 16.3251C116.701 16.0954 117.121 15.7662 117.458 15.3596C117.796 14.9531 118.042 14.4787 118.18 13.9687C118.318 13.4587 118.345 12.9249 118.259 12.4036C118.21 11.8258 118.04 11.2648 117.761 10.7567C117.482 10.2486 117.099 9.80476 116.638 9.45372C115.806 8.84227 114.791 8.53351 113.76 8.57859V8.55893Z" fill="#F18916"/>
<path d="M9.94257 71.5161C8.67542 71.5081 7.45423 71.9908 6.53428 72.8632C6.11469 73.339 5.80832 73.9038 5.63819 74.5152C5.46807 75.1266 5.43862 75.7687 5.55206 76.3931C5.6977 77.1097 6.00698 77.7827 6.4557 78.3597C6.9646 79.0755 7.64269 79.654 8.42939 80.0435C9.2161 80.433 10.0869 80.6214 10.9641 80.5918C11.552 80.5716 12.129 80.4276 12.6576 80.1691C13.1862 79.9106 13.6543 79.5434 14.0316 79.0915C14.4088 78.6397 14.6866 78.1133 14.8469 77.5466C15.0071 76.98 15.0463 76.3859 14.9617 75.8032C14.9081 75.1527 14.7187 74.5208 14.4057 73.9483C14.0927 73.3757 13.663 72.8754 13.1446 72.4797C12.2172 71.8044 11.0882 71.4646 9.94257 71.5161Z" fill="white"/>
<path d="M10.609 81.0733C9.71539 81.0344 8.84195 80.7951 8.05313 80.3731C7.2643 79.951 6.58025 79.3569 6.0515 78.6347C5.56682 77.9851 5.23143 77.2364 5.06928 76.442C4.94872 75.7451 4.98585 75.03 5.17794 74.3493C5.37002 73.6686 5.71217 73.0397 6.17919 72.5089C7.1789 71.5319 8.52441 70.991 9.92143 71.0045C11.1824 70.9536 12.4229 71.3351 13.4378 72.0861C14.0063 72.5252 14.4754 73.08 14.814 73.7139C15.1526 74.3478 15.3531 75.0464 15.4022 75.7636C15.5495 78.1136 14.42 80.7488 10.9626 81.0634L10.609 81.0733ZM9.97054 71.9583C8.82711 71.9386 7.72094 72.3653 6.88639 73.1481C6.51527 73.568 6.24386 74.0665 6.09247 74.6063C5.94109 75.1461 5.91365 75.7131 6.01221 76.265C6.14319 76.9133 6.42221 77.5224 6.82746 78.0448C7.28598 78.6979 7.89942 79.2266 8.61262 79.5836C9.32583 79.9406 10.1165 80.1146 10.9135 80.09C14.3414 79.7852 14.5379 76.9927 14.4691 75.8127C14.4181 75.2343 14.2466 74.6731 13.9658 74.165C13.685 73.657 13.301 73.2134 12.8386 72.8629C12.0079 72.2571 10.9976 71.9489 9.97054 71.9878V71.9583Z" fill="#F18916"/>
<path d="M30.334 35.4664C30.334 22.6331 37.6673 17.1331 48.6673 17.1331H85.334C96.334 17.1331 103.667 22.6331 103.667 35.4664V61.1331C103.667 73.9664 96.334 79.4664 85.334 79.4664H48.6673" fill="white"/>
<path d="M30.334 35.4664C30.334 22.6331 37.6673 17.1331 48.6673 17.1331H85.334C96.334 17.1331 103.667 22.6331 103.667 35.4664V61.1331C103.667 73.9664 96.334 79.4664 85.334 79.4664H48.6673" stroke="#F18916" stroke-width="2" stroke-miterlimit="10" stroke-linecap="round" stroke-linejoin="round"/>
<path d="M85.3327 37.3L73.856 46.4667C70.0793 49.4734 63.8827 49.4734 60.106 46.4667L48.666 37.3" stroke="#F18916" stroke-width="2" stroke-miterlimit="10" stroke-linecap="round" stroke-linejoin="round"/>
<path d="M30.334 64.8H52.334" stroke="#F18916" stroke-width="2" stroke-miterlimit="10" stroke-linecap="round" stroke-linejoin="round"/>
<path d="M30.334 50.1331H41.334" stroke="#F18916" stroke-width="2" stroke-miterlimit="10" stroke-linecap="round" stroke-linejoin="round"/>
</svg>
