<svg width="25" height="25" viewBox="0 0 25 25" fill="none" xmlns="http://www.w3.org/2000/svg">
<path fill-rule="evenodd" clip-rule="evenodd" d="M20.6345 7.73458L20.0121 6.65448C19.4855 5.74056 18.3186 5.42528 17.4034 5.94968V5.94968C16.9678 6.20631 16.448 6.27911 15.9586 6.15205C15.4692 6.02498 15.0505 5.70848 14.7947 5.27233C14.6302 4.99511 14.5418 4.67936 14.5384 4.357V4.357C14.5533 3.84018 14.3583 3.33936 13.9979 2.96863C13.6375 2.5979 13.1424 2.38883 12.6254 2.38904H11.3714C10.8648 2.38903 10.3792 2.59088 10.0219 2.94991C9.66457 3.30894 9.46506 3.79555 9.46749 4.30208V4.30208C9.45248 5.34789 8.60036 6.18777 7.55445 6.18767C7.23209 6.18432 6.91634 6.09591 6.63912 5.93137V5.93137C5.72394 5.40698 4.55699 5.72226 4.03042 6.63618L3.36223 7.73458C2.83629 8.64736 3.14728 9.81357 4.05788 10.3433V10.3433C4.64978 10.685 5.01441 11.3166 5.01441 12C5.01441 12.6835 4.64978 13.315 4.05788 13.6568V13.6568C3.14844 14.1829 2.83711 15.3463 3.36223 16.2563V16.2563L3.99381 17.3456C4.24053 17.7907 4.65448 18.1193 5.14407 18.2584C5.63366 18.3975 6.15852 18.3359 6.6025 18.087V18.087C7.03896 17.8323 7.55907 17.7625 8.04722 17.8932C8.53537 18.0238 8.95112 18.344 9.20204 18.7826C9.36658 19.0599 9.45499 19.3756 9.45834 19.698V19.698C9.45834 20.7545 10.3148 21.611 11.3714 21.611H12.6254C13.6784 21.611 14.5334 20.7601 14.5384 19.7071V19.7071C14.536 19.199 14.7367 18.711 15.096 18.3517C15.4553 17.9924 15.9434 17.7916 16.4515 17.7941C16.7731 17.8027 17.0875 17.8907 17.3668 18.0504V18.0504C18.2796 18.5763 19.4458 18.2653 19.9755 17.3547V17.3547L20.6345 16.2563C20.8896 15.8185 20.9597 15.297 20.8291 14.8073C20.6985 14.3177 20.3781 13.9003 19.9389 13.6476V13.6476C19.4996 13.3949 19.1793 12.9775 19.0487 12.4879C18.9181 11.9983 18.9881 11.4768 19.2432 11.0389C19.4091 10.7493 19.6493 10.5092 19.9389 10.3433V10.3433C20.844 9.81386 21.1543 8.65445 20.6345 7.74373V7.74373V7.73458Z" stroke="#AFB0B8" stroke-width="1.5" stroke-linecap="round" stroke-linejoin="round"/>
<circle cx="12.0029" cy="12" r="2.63616" stroke="#AFB0B8" stroke-width="1.5" stroke-linecap="round" stroke-linejoin="round"/>
</svg>
