<svg width="25" height="25" viewBox="0 0 18 21" fill="none" xmlns="http://www.w3.org/2000/svg">
<path fill-rule="evenodd" clip-rule="evenodd" d="M8.38533 0.60169L1.74174 2.87005C0.997965 3.12306 0.5 3.80545 0.5 4.57198V11.2097C0.5 13.2315 1.2529 15.1789 2.60912 16.696C3.24795 17.4121 4.06192 18.0077 5.04931 18.5259L8.64662 20.4118C8.87107 20.5295 9.14142 20.5294 9.36582 20.4116L12.9568 18.5269C13.9415 18.0095 14.7555 17.4127 15.3944 16.6964C16.7486 15.1804 17.5 13.2342 17.5 11.2136V4.57198C17.5 3.80545 17.002 3.12306 16.2574 2.86977L9.61563 0.602016C9.218 0.466049 8.78371 0.466049 8.38533 0.60169ZM9.11306 1.98951L15.7563 4.25777C15.8945 4.30477 15.9861 4.4303 15.9861 4.57198V11.2136C15.9861 12.8792 15.3668 14.4832 14.2508 15.7327L14.0525 15.9427C13.5722 16.4246 12.9672 16.8492 12.2369 17.2329L9.00505 18.9283L5.76848 17.2316C4.9313 16.7922 4.26044 16.3013 3.75256 15.732C2.63446 14.4813 2.01389 12.8761 2.01389 11.2097V4.57198C2.01389 4.4303 2.1055 4.30477 2.24283 4.25805L8.88661 1.98962C8.95994 1.96466 9.04038 1.96466 9.11306 1.98951ZM12.7553 7.7399C12.4597 7.45269 11.9804 7.45269 11.6848 7.7399L8.28544 11.0422L6.91181 9.70616L6.82693 9.63493C6.53066 9.42122 6.11013 9.44485 5.84132 9.70588C5.54564 9.99302 5.54551 10.4587 5.84104 10.746L7.75056 12.6023L7.83546 12.6735C8.13179 12.8872 8.55241 12.8636 8.82119 12.6024L12.7553 8.77999L12.8286 8.69751C13.0485 8.40959 13.024 8.001 12.7553 7.7399Z" fill="#0774E4"/>
</svg>
