<svg width="25" height="25" viewBox="0 0 25 25" fill="none" xmlns="http://www.w3.org/2000/svg">
<path d="M3.46436 11.22V15.71C3.46436 20.2 5.26436 22 9.75436 22H15.1444C19.6344 22 21.4344 20.2 21.4344 15.71V11.22" fill="#0774E4"/>
<path d="M3.46436 11.22V15.71C3.46436 20.2 5.26436 22 9.75436 22H15.1444C19.6344 22 21.4344 20.2 21.4344 15.71V11.22" stroke="white" stroke-width="1.5" stroke-linecap="round" stroke-linejoin="round"/>
<path d="M18.7644 12C20.7844 12 22.2644 10.36 22.0644 8.35L21.7844 5.6C21.4244 3 20.4244 2 17.8044 2H14.7544L15.4544 9.01C15.6244 10.66 17.1144 12 18.7644 12Z" fill="#0774E4" stroke="white" stroke-width="1.5" stroke-linecap="round" stroke-linejoin="round"/>
<path d="M6.09447 12C7.74447 12 9.23447 10.66 9.39447 9.01L9.61447 6.8L10.0945 2H7.04447C4.42447 2 3.42447 3 3.06447 5.6L2.79447 8.35C2.59447 10.36 4.07447 12 6.09447 12Z" fill="#0774E4" stroke="white" stroke-width="1.5" stroke-linecap="round" stroke-linejoin="round"/>
<path d="M12.4546 12C14.2846 12 15.6346 10.51 15.4546 8.68L14.7946 2H10.1246L9.45458 8.68C9.27458 10.51 10.6246 12 12.4546 12Z" fill="#0774E4" stroke="white" stroke-width="1.5" stroke-linecap="round" stroke-linejoin="round"/>
<path d="M12.4546 17C10.7846 17 9.95459 17.83 9.95459 19.5V22H14.9546V19.5C14.9546 17.83 14.1246 17 12.4546 17Z" fill="#0774E4" stroke="white" stroke-width="1.5" stroke-linecap="round" stroke-linejoin="round"/>
</svg>
