<svg width="18" height="18" viewBox="0 0 18 18" fill="none" xmlns="http://www.w3.org/2000/svg">
<path d="M6.58204 13.7696L6.97967 14.5167C6.99979 14.5546 7.00525 14.5995 6.99482 14.6417C6.9844 14.6839 6.95896 14.7199 6.92409 14.7417L6.51177 15L5.42131 14.9947L5.9623 13.9676L6.37462 13.7094C6.39189 13.6985 6.41095 13.6915 6.43072 13.6887C6.45049 13.6858 6.47058 13.6873 6.48984 13.6928C6.5091 13.6984 6.52716 13.7081 6.54298 13.7213C6.5588 13.7344 6.57208 13.7509 6.58204 13.7696ZM4 10.2804L4.57179 14.8385L5.08564 11.0288C5.09058 10.9921 5.08398 10.9547 5.0669 10.9226L4.61974 10.0824C4.59961 10.0445 4.56644 10.0169 4.52754 10.0056C4.48864 9.99431 4.4472 10.0002 4.41232 10.0221L4 10.2804Z" fill="#B05E00" stroke="#B05E00"/>
<path d="M6.34582 14.1118L7 15.2631L4.081 16.9754C4.03948 16.9998 3.99013 17.0063 3.94382 16.9937C3.89751 16.9811 3.85802 16.9504 3.83404 16.9082L3.30165 15.9712C3.28129 15.9354 3.27343 15.8937 3.27934 15.8528L3.89114 11.6044L1.74463 12.8636C1.7031 12.888 1.65376 12.8946 1.60745 12.882C1.56114 12.8694 1.52165 12.8386 1.49767 12.7964L1.02421 11.9633C1.00024 11.9211 0.993753 11.8709 1.00616 11.8239C1.01857 11.7768 1.04886 11.7367 1.09038 11.7123L4.00937 10L4.66355 11.1513L4.69013 15.083L6.34582 14.1118Z" fill="#B05E00" stroke="#B05E00"/>
<path d="M17 8.96468V10.8045C17 10.8564 16.9815 10.9061 16.9485 10.9427C16.9156 10.9794 16.8709 11 16.8243 11H15.963L14.926 9.88461L15.963 8.76922H16.8243C16.8709 8.76922 16.9156 8.78981 16.9485 8.82647C16.9815 8.86312 17 8.91284 17 8.96468ZM15.963 1L13 8.76922L16.9613 3.28442C16.9863 3.2497 17 3.2065 17 3.16195V1.19546C17 1.14362 16.9815 1.0939 16.9485 1.05725C16.9156 1.02059 16.8709 1 16.8243 1H15.963Z" fill="#B05E00" stroke="#B05E00"/>
<path d="M16 8.76922V11H10.1906C10.14 11 10.0916 10.9794 10.0558 10.9427C10.0201 10.9061 10 10.8564 10 10.8045V8.83801C10 8.79351 10.0148 8.75032 10.042 8.71561L14.3357 3.23078H10.1906C10.1401 3.23078 10.0916 3.21019 10.0559 3.17353C10.0201 3.13687 10 3.08716 10 3.03532V1.19546C10 1.16979 10.005 1.14437 10.0145 1.12066C10.0241 1.09695 10.0382 1.0754 10.0559 1.05725C10.0735 1.0391 10.0946 1.0247 10.1177 1.01488C10.1408 1.00506 10.1656 1 10.1906 1H16V3.23078L12.7855 8.76922H16Z" fill="#B05E00" stroke="#B05E00"/>
</svg>
