<svg width="28" height="18" viewBox="0 0 38 26" fill="none" xmlns="http://www.w3.org/2000/svg">
  <path d="M32.8834 25.8546C33.2626 26.1201 33.7741 26.0139 34.0722 25.6024C36.5288 22.1249 38 17.7581 38 13.0063C38 8.25447 36.5288 3.87448 34.0722 0.410172C33.7741 -0.0146633 33.2626 -0.120677 32.8834 0.144748C32.4924 0.423376 32.4253 0.927822 32.7215 1.35246C34.9095 4.59115 36.3392 8.5997 36.3392 13.0063C36.3392 17.4129 35.03 21.5277 32.7077 24.6601C32.4115 25.0848 32.4786 25.5758 32.8834 25.8546ZM14.8343 24.846C15.6321 24.846 16.1574 24.2751 16.1574 23.5052V2.40115C16.1574 1.63129 15.6321 1.00743 14.8224 1.00743C14.2557 1.00743 13.8489 1.25965 13.2959 1.7773L7.20783 7.52461C7.09922 7.63062 6.96493 7.68382 6.78917 7.68382H2.64618C0.999243 7.68382 0 8.66591 0 10.3649V15.5813C0 17.2669 0.999243 18.2624 2.64618 18.2624H6.78917C6.96493 18.2624 7.09922 18.3022 7.20783 18.4084L13.2959 24.1291C13.8094 24.5937 14.2675 24.846 14.8343 24.846ZM27.4983 22.2575C27.9031 22.5231 28.3889 22.4169 28.6851 22.0187C30.494 19.6031 31.507 16.4174 31.507 13.0063C31.507 9.58179 30.5078 6.39631 28.6851 3.98069C28.3751 3.58246 27.9031 3.47624 27.4983 3.75487C27.0935 4.02049 27.0382 4.51154 27.3482 4.94958C28.8471 7.16618 29.8463 9.94022 29.8463 13.0063C29.8463 16.0724 28.928 18.926 27.3364 21.063C27.0382 21.4879 27.0935 21.9921 27.4983 22.2575ZM22.1527 18.7004C22.516 18.9394 23.0156 18.873 23.3119 18.4748C24.3664 17.1077 25.0279 15.1035 25.0279 13.0063C25.0279 10.8959 24.3664 8.90493 23.3119 7.53781C23.0156 7.13957 22.5298 7.05996 22.1527 7.31219C21.7202 7.60421 21.6531 8.12186 21.9907 8.5599C22.8142 9.6614 23.3671 11.2941 23.3671 13.0063C23.3671 14.7318 22.8004 16.3644 21.9631 17.4793C21.6531 17.9041 21.7202 18.3952 22.1527 18.7004Z" fill="white"/>
  <line x1="1.41401" y1="4.02397" x2="35" y2="24" stroke="white" stroke-width="2" stroke-linecap="round"/>
</svg>
  