<svg width="67" height="67" viewBox="0 0 67 67" fill="none" xmlns="http://www.w3.org/2000/svg">
<path d="M33.1458 66.2918C24.355 66.2918 15.9242 62.7997 9.70819 56.5837C3.49214 50.3676 0 41.9368 0 33.146C0 24.3552 3.49214 15.9244 9.70819 9.70837C15.9242 3.49232 24.355 0.000178063 33.1458 0.000177932C38.3113 -0.0169216 43.4062 1.19868 48.0075 3.54601C48.2788 3.68368 48.5203 3.87344 48.7183 4.10444C48.9162 4.33545 49.0667 4.60319 49.1612 4.89236C49.2557 5.18154 49.2923 5.4865 49.2689 5.78982C49.2456 6.09314 49.1627 6.38889 49.025 6.66018C48.8873 6.93147 48.6976 7.17298 48.4666 7.37094C48.2356 7.56889 47.9678 7.71941 47.6786 7.81389C47.3895 7.90838 47.0845 7.94498 46.7812 7.92161C46.4779 7.89823 46.1821 7.81535 45.9108 7.67768C41.9638 5.64341 37.5862 4.58602 33.1458 4.59434C27.5063 4.59435 21.9933 6.26629 17.3037 9.39884C12.6142 12.5314 8.95856 16.9839 6.79898 22.1936C4.6394 27.4033 4.0728 33.1363 5.17078 38.668C6.26877 44.1996 8.98206 49.2816 12.9677 53.2715C16.9533 57.2615 22.0323 59.9803 27.5628 61.0842C33.0933 62.1882 38.8269 61.6278 44.0389 59.4738C49.251 57.3199 53.7074 53.6691 56.8451 48.9829C59.9827 44.2968 61.6606 38.7856 61.6667 33.146C61.6827 32.8893 61.6827 32.6319 61.6667 32.3752C61.6094 31.7619 61.7982 31.1509 62.1914 30.6768C62.5846 30.2026 63.15 29.9041 63.7633 29.8468C64.3766 29.7896 64.9876 29.9783 65.4617 30.3715C65.9359 30.7647 66.2344 31.3302 66.2917 31.9435V33.146C66.2835 41.9343 62.7887 50.3604 56.5745 56.5746C50.3602 62.7889 41.9341 66.2837 33.1458 66.2918Z" fill="#0FDE82"/>
<path d="M32.5908 43.6602C32.2911 43.6646 31.9938 43.6066 31.7177 43.4898C31.4417 43.373 31.193 43.2 30.9875 42.9818L16.095 28.3668C15.6619 27.9332 15.4187 27.3455 15.4187 26.7327C15.4187 26.1199 15.6619 25.5321 16.095 25.0985C16.5377 24.6709 17.1291 24.4318 17.7446 24.4318C18.3601 24.4318 18.9515 24.6709 19.3942 25.0985L32.6217 38.141L62.3758 8.88017C62.8185 8.45253 63.4099 8.2135 64.0254 8.2135C64.6409 8.2135 65.2323 8.45253 65.675 8.88017C66.1081 9.31377 66.3513 9.90152 66.3513 10.5143C66.3513 11.1272 66.1081 11.7149 65.675 12.1485L34.2867 42.9818C34.066 43.2056 33.8014 43.3814 33.5096 43.4981C33.2178 43.6148 32.905 43.67 32.5908 43.6602Z" fill="#0FDE82"/>
</svg>
