<svg width="32" height="38" viewBox="0 0 32 38" fill="none" xmlns="http://www.w3.org/2000/svg">
<path fill-rule="evenodd" clip-rule="evenodd" d="M15.0586 4.44054C13.7544 4.44054 12.697 5.49785 12.697 6.80212C12.697 8.10638 13.7544 9.1637 15.0586 9.1637C16.3629 9.1637 17.4202 8.10638 17.4202 6.80212C17.4202 5.49785 16.3629 4.44054 15.0586 4.44054ZM11.2586 6.80212C11.2586 4.70341 12.9599 3.00208 15.0586 3.00208C17.1573 3.00208 18.8587 4.70341 18.8587 6.80212C18.8587 8.90082 17.1573 10.6022 15.0586 10.6022C12.9599 10.6022 11.2586 8.90082 11.2586 6.80212Z" fill="#9f9f9f"/>
<path fill-rule="evenodd" clip-rule="evenodd" d="M8.09646 14.2734C7.46207 14.2734 6.9478 14.7877 6.9478 15.4221C6.9478 16.0565 7.46207 16.5707 8.09646 16.5707C8.73085 16.5707 9.24512 16.0565 9.24512 15.4221C9.24512 14.7877 8.73085 14.2734 8.09646 14.2734ZM5.50934 15.4221C5.50934 13.9933 6.66763 12.835 8.09646 12.835C9.52529 12.835 10.6836 13.9933 10.6836 15.4221C10.6836 16.8509 9.52529 18.0092 8.09646 18.0092C6.66763 18.0092 5.50934 16.8509 5.50934 15.4221Z" fill="#9f9f9f"/>
<path fill-rule="evenodd" clip-rule="evenodd" d="M19.4898 30.3284C18.8554 30.3284 18.3411 30.8426 18.3411 31.477C18.3411 32.1114 18.8554 32.6257 19.4898 32.6257C20.1242 32.6257 20.6384 32.1114 20.6384 31.477C20.6384 30.8426 20.1242 30.3284 19.4898 30.3284ZM16.9026 31.477C16.9026 30.0482 18.0609 28.8899 19.4898 28.8899C20.9186 28.8899 22.0769 30.0482 22.0769 31.477C22.0769 32.9058 20.9186 34.0641 19.4898 34.0641C18.0609 34.0641 16.9026 32.9058 16.9026 31.477Z" fill="#9f9f9f"/>
<path fill-rule="evenodd" clip-rule="evenodd" d="M18.3154 12.8339C17.2203 12.5656 16.0888 12.563 15.3376 12.563H14.7756C14.0765 12.563 13.0442 12.5649 12.0161 12.7842C10.9822 13.0047 10.0559 13.424 9.475 14.1786C9.23271 14.4934 8.78113 14.5522 8.46636 14.3099C8.15159 14.0676 8.09283 13.616 8.33511 13.3012C9.21378 12.1597 10.5273 11.6309 11.7161 11.3774C12.9018 11.1245 14.0664 11.1245 14.76 11.1245L15.3557 11.1245C16.0993 11.1245 17.383 11.1245 18.6578 11.4368C19.9349 11.7497 21.3182 12.4047 22.1136 13.802C22.3573 14.1749 22.568 14.5607 23.0349 16.3273C23.5903 18.3683 23.9655 20.1474 24.1625 21.3885C24.4142 22.2555 24.0007 23.2784 23.0816 23.619C22.127 24.0599 20.871 23.5721 20.4505 22.4606L20.4456 22.4473C20.4303 22.4044 20.415 22.3614 20.3997 22.3185L20.3222 29.6206C20.318 30.0178 19.9926 30.3364 19.5954 30.3322C19.1982 30.328 18.8796 30.0025 18.8838 29.6053L19.0051 18.1837C19.0088 17.8323 19.266 17.5351 19.6132 17.4808C19.9604 17.4265 20.296 17.631 20.4068 17.9645C20.8377 19.2608 21.2721 20.4807 21.7064 21.7C21.7369 21.7857 21.7674 21.8713 21.798 21.957C21.8646 22.1285 21.99 22.2417 22.1311 22.2992C22.2832 22.3612 22.4149 22.3448 22.4853 22.3098C22.5138 22.2957 22.5431 22.2835 22.5732 22.2732C22.7159 22.2246 22.8535 22.0074 22.7773 21.7771C22.7649 21.7397 22.7556 21.7014 22.7495 21.6624C22.5643 20.4802 22.1985 18.7315 21.6462 16.7024L21.6448 16.6972C21.2046 15.0316 21.0366 14.7795 20.9159 14.5984C20.9099 14.5893 20.9039 14.5804 20.8981 14.5716C20.8889 14.5576 20.8802 14.5433 20.8721 14.5287C20.3554 13.6087 19.4118 13.1025 18.3154 12.8339Z" fill="#9f9f9f"/>
<path fill-rule="evenodd" clip-rule="evenodd" d="M7.77381 16.5174C8.158 16.6183 8.38764 17.0116 8.28672 17.3958C7.83113 19.1302 7.52934 20.6179 7.36792 21.6612C7.36182 21.7006 7.35247 21.7394 7.33995 21.7772C7.30631 21.8789 7.31363 21.9957 7.35884 22.0956C7.40298 22.193 7.47061 22.2498 7.53995 22.2734C7.57003 22.2836 7.5994 22.2958 7.62787 22.31C7.6981 22.3448 7.83099 22.3615 7.984 22.2992C8.12595 22.2414 8.25007 22.1284 8.31455 21.959C8.3453 21.8726 8.37605 21.7863 8.4068 21.7C8.84107 20.4807 9.27552 19.2609 9.70637 17.9646C9.81719 17.6312 10.1527 17.4266 10.4999 17.4809C10.847 17.5351 11.1042 17.8322 11.1081 18.1835L11.1849 25.1457C11.1893 25.5429 10.8708 25.8684 10.4736 25.8728C10.0764 25.8772 9.7509 25.5588 9.74652 25.1616L9.7151 22.314C9.69924 22.3585 9.68339 22.403 9.66755 22.4475L9.66395 22.4576L9.66387 22.4576C9.2472 23.5747 7.98402 24.0589 7.03164 23.6192C6.10922 23.2774 5.70433 22.2524 5.95446 21.3893C6.1263 20.2937 6.43653 18.7775 6.89546 17.0303C6.99637 16.6461 7.38962 16.4165 7.77381 16.5174Z" fill="#9f9f9f"/>
<path fill-rule="evenodd" clip-rule="evenodd" d="M15.0588 27.2725C15.3959 27.2725 15.6877 27.5068 15.7607 27.8359L17.4363 35.3898C17.4369 35.3923 17.438 35.3959 17.4394 35.4006C17.4443 35.4168 17.4533 35.4447 17.4675 35.4803C17.4965 35.5534 17.5425 35.6477 17.6085 35.738C17.7305 35.9048 17.9076 36.0499 18.2324 36.0499C18.512 36.0499 18.6247 35.9305 18.7068 35.7762C18.7549 35.6859 18.7854 35.5879 18.8034 35.5075C18.812 35.4689 18.8168 35.4382 18.8193 35.4198C18.8193 35.4192 18.8194 35.4187 18.8195 35.4181L18.8434 33.3324C18.8479 32.9352 19.1736 32.6169 19.5708 32.6215C19.968 32.626 20.2863 32.9517 20.2817 33.3489L20.2575 35.4675C20.2573 35.481 20.2568 35.4945 20.2559 35.5079L19.5383 35.4592C20.2559 35.5079 20.2559 35.5076 20.2559 35.5079L20.2557 35.5108L20.2554 35.5142L20.2548 35.5224L20.2527 35.5447C20.251 35.5621 20.2485 35.5845 20.2449 35.6112C20.2378 35.6645 20.2261 35.7361 20.2074 35.8203C20.1706 35.9855 20.1028 36.215 19.9766 36.4522C19.71 36.9529 19.1697 37.4884 18.2324 37.4884C17.3402 37.4884 16.7693 37.0271 16.4476 36.5874C16.2918 36.3745 16.1919 36.1655 16.1306 36.0113C16.0996 35.9332 16.0774 35.8663 16.0622 35.8161C16.0546 35.7909 16.0488 35.7697 16.0444 35.7531L16.0389 35.7317L16.037 35.7236L16.0362 35.7203L16.0358 35.7188C16.0358 35.7185 16.0355 35.7175 16.7365 35.5563L16.0355 35.7175L16.0343 35.712L15.0577 31.3093L14.0781 35.7152L13.3768 35.5563C14.0781 35.7152 14.0782 35.7149 14.0781 35.7152L14.0778 35.7166L14.0775 35.7181L14.0767 35.7214L14.0748 35.7295L14.0694 35.7509C14.065 35.7675 14.0592 35.7888 14.0517 35.814C14.0367 35.8642 14.0147 35.9312 13.9839 36.0094C13.9231 36.1637 13.8238 36.3729 13.6685 36.5861C13.3476 37.0267 12.7773 37.4884 11.8848 37.4884C10.9479 37.4884 10.407 36.9535 10.1394 36.4537C10.0125 36.2168 9.94411 35.9875 9.90681 35.8223C9.88782 35.7382 9.87597 35.6666 9.86866 35.6134C9.86499 35.5866 9.86242 35.5643 9.86065 35.5469L9.85855 35.5246L9.85787 35.5164L9.85761 35.513L9.8575 35.5115C9.85748 35.5112 9.8574 35.5101 10.5748 35.4592L9.8574 35.5101C9.85639 35.4958 9.8558 35.4814 9.85564 35.467L9.78691 29.1316C9.7826 28.7344 10.1011 28.4089 10.4983 28.4046C10.8955 28.4003 11.221 28.7188 11.2253 29.1159L11.2936 35.4169C11.2937 35.4172 11.2936 35.4167 11.2936 35.4169C11.2962 35.4353 11.3012 35.4668 11.3099 35.5055C11.3281 35.5859 11.359 35.6841 11.4075 35.7747C11.4906 35.9299 11.6047 36.0499 11.8848 36.0499C12.2093 36.0499 12.3849 35.9052 12.5057 35.7393C12.5713 35.6493 12.6167 35.5552 12.6455 35.4822C12.6595 35.4467 12.6685 35.4188 12.6733 35.4028C12.6748 35.3976 12.6759 35.3937 12.6765 35.3913L14.3565 27.8356C14.4297 27.5065 14.7216 27.2724 15.0588 27.2725Z" fill="#9f9f9f"/>
<path fill-rule="evenodd" clip-rule="evenodd" d="M16.3645 14.6452C15.7301 14.6452 15.2158 15.1595 15.2158 15.7939C15.2158 16.4283 15.7301 16.9426 16.3645 16.9426C16.9989 16.9426 17.5131 16.4283 17.5131 15.7939C17.5131 15.1595 16.9989 14.6452 16.3645 14.6452ZM13.7773 15.7939C13.7773 14.3651 14.9356 13.2068 16.3645 13.2068C17.7933 13.2068 18.9516 14.3651 18.9516 15.7939C18.9516 17.2227 17.7933 18.381 16.3645 18.381C14.9356 18.381 13.7773 17.2227 13.7773 15.7939Z" fill="#9f9f9f"/>
<path fill-rule="evenodd" clip-rule="evenodd" d="M0.896179 14.674C0.896179 6.85372 7.23831 0.511597 15.0586 0.511597C22.8791 0.511597 29.2169 6.854 29.2169 14.674C29.2169 16.1279 29.0002 17.5382 28.5861 18.862C27.7173 21.6691 26.0778 23.6969 24.5955 25.0616L26.152 26.6181C26.7497 26.4027 27.4445 26.5345 27.9235 27.0135L31.1903 30.2803C31.8512 30.9412 31.8512 32.0127 31.1903 32.6736C30.5295 33.3345 29.4579 33.3345 28.7971 32.6736L25.5303 29.4068C25.0512 28.9278 24.9194 28.233 25.1348 27.6352L23.4909 25.9913C22.9053 26.4414 22.396 26.7704 22.0404 26.988C21.7016 27.1954 21.2589 27.0889 21.0515 26.7501C20.8441 26.4113 20.9507 25.9686 21.2894 25.7612C22.579 24.9718 25.8964 22.6883 27.2123 18.4357L27.2129 18.4335C27.583 17.2509 27.7785 15.9852 27.7785 14.674C27.7785 7.64788 22.0841 1.95006 15.0586 1.95006C8.03275 1.95006 2.33464 7.64816 2.33464 14.674C2.33464 19.3377 4.84742 23.4172 8.59175 25.6301C8.93371 25.8322 9.04709 26.2733 8.84499 26.6152C8.64289 26.9572 8.20184 27.0706 7.85988 26.8685C3.69598 24.4076 0.896179 19.8673 0.896179 14.674Z" fill="#9f9f9f"/>
</svg>
