<svg width="24" height="24" viewBox="0 0 24 24" fill="none" xmlns="http://www.w3.org/2000/svg">
<g clip-path="url(#clip0_508_3002)">
<g clip-path="url(#clip1_508_3002)">
<path d="M12 23.999C12.2589 23.999 12.4688 23.7892 12.4688 23.5303C12.4688 23.2714 12.2589 23.0615 12 23.0615C11.7411 23.0615 11.5312 23.2714 11.5312 23.5303C11.5312 23.7892 11.7411 23.999 12 23.999Z" fill="#2B75EA"/>
<path d="M20.7124 0H3.28774C1.47489 0 0.000391439 1.48748 0.000391439 3.30033C0.000391439 3.30877 -7.73112e-05 3.29189 0.000391439 3.30033L0.939438 20.7255C0.94661 22.5322 2.41867 24 4.22706 24H9.89477C10.1541 24 10.3645 23.7897 10.3645 23.5303C10.3645 23.2709 10.1542 23.0606 9.89477 23.0606H4.22706C2.93219 23.0606 1.87839 21.9945 1.87839 20.6996C1.87886 20.7081 1.87839 20.6912 1.87839 20.6996L0.939438 3.27558C0.945954 1.98623 1.99689 0.939328 3.28774 0.939328H20.7124C22.0032 0.939328 23.0542 1.98623 23.0607 3.27558L22.1217 20.6997C22.1217 20.6912 22.1213 20.7081 22.1217 20.6997C22.1217 21.9945 21.0679 23.0607 19.7731 23.0607H14.1054C13.846 23.0607 13.6357 23.271 13.6357 23.5304C13.6357 23.7898 13.846 24 14.1054 24H19.7731C21.5815 24 23.0535 22.5322 23.0607 20.7255L23.9997 3.30028C24.0002 3.29184 23.9997 3.30872 23.9997 3.30028C23.9997 1.48748 22.5252 0 20.7124 0Z" fill="#2B75EA"/>
<path d="M7.21175 10.7632H16.7883C16.8796 10.7632 16.9689 10.7366 17.0453 10.6867C17.1217 10.6368 17.1819 10.5657 17.2185 10.4821L19.2561 5.83237C19.298 5.73667 19.3068 5.62972 19.2812 5.52843C19.2555 5.42715 19.1968 5.33732 19.1143 5.27315C18.1911 4.55498 15.6359 2.88342 12.0179 2.87268C12.0297 2.87268 12.0062 2.87268 12.0179 2.87268C8.38269 2.87268 5.81525 4.55015 4.88586 5.27315C4.8034 5.33732 4.74469 5.42715 4.71901 5.52843C4.69334 5.62972 4.70217 5.73667 4.74411 5.83237L6.78168 10.4821C6.81828 10.5657 6.87845 10.6368 6.95483 10.6867C7.03122 10.7367 7.1205 10.7633 7.21175 10.7632ZM11.9994 8.57029C12.4967 8.57029 12.979 8.67356 13.3943 8.86884C13.8859 9.10002 14.2428 9.43949 14.4171 9.82392H9.58208C9.91049 9.10045 10.8792 8.57029 11.9994 8.57029ZM7.59983 4.75021L7.96635 5.52777C8.00433 5.60841 8.06447 5.67657 8.13975 5.72429C8.21502 5.77202 8.30233 5.79734 8.39146 5.79731C8.4606 5.79729 8.52888 5.78194 8.59138 5.75235C8.82604 5.64173 8.92658 5.36188 8.81596 5.12727L8.47555 4.40507C9.3493 4.1031 10.3748 3.87309 11.5304 3.82293V4.62613C11.5304 4.88554 11.7407 5.09582 12.0001 5.09582C12.2595 5.09582 12.4698 4.88554 12.4698 4.62613V3.82302C13.5058 3.86793 14.5299 4.06228 15.5103 4.40006L15.2064 5.16993C15.1112 5.4112 15.2296 5.68401 15.4709 5.77926C15.5257 5.80099 15.5842 5.81216 15.6432 5.81217C15.8303 5.81217 16.0073 5.69948 16.0802 5.51484L16.3846 4.74351C17.1904 5.10032 17.8198 5.49407 18.2458 5.79763L16.4814 9.82396H15.4099C15.2213 9.07331 14.6431 8.41813 13.7941 8.01885C13.2546 7.76512 12.634 7.63096 11.9994 7.63096C11.3326 7.63096 10.7114 7.77613 10.1836 8.02851L9.53741 6.65737C9.42679 6.42276 9.14708 6.32212 8.91229 6.43274C8.67768 6.54337 8.57708 6.82321 8.68766 7.05782L9.39088 8.5499C8.99347 8.90324 8.71175 9.33923 8.59044 9.82401H7.51879L5.75436 5.79763C6.17811 5.49557 6.80193 5.10506 7.59983 4.75021ZM7.21175 12.6419H16.7883C17.0477 12.6419 17.258 12.4317 17.258 12.1723C17.258 11.9129 17.0477 11.7026 16.7883 11.7026H7.21175C6.9524 11.7026 6.74207 11.9129 6.74207 12.1723C6.74207 12.4317 6.9524 12.6419 7.21175 12.6419ZM3.70091 19.7853C3.70091 19.5259 3.49063 19.3156 3.23122 19.3156C2.97186 19.3156 2.76154 19.5259 2.76154 19.7853C2.76154 21.0852 3.81908 22.1427 5.11897 22.1427C5.37833 22.1427 5.58866 21.9324 5.58866 21.673C5.58866 21.4136 5.37838 21.2033 5.11897 21.2033C4.33705 21.2034 3.70091 20.5672 3.70091 19.7853ZM18.3644 21.673C18.3644 21.9324 18.5747 22.1427 18.8341 22.1427C20.134 22.1427 21.1915 21.0852 21.1915 19.7853C21.1915 19.5259 20.9812 19.3156 20.7218 19.3156C20.4624 19.3156 20.2521 19.5259 20.2521 19.7853C20.2521 20.5672 19.616 21.2034 18.8341 21.2034C18.5747 21.2034 18.3644 21.4136 18.3644 21.673Z" fill="#2B75EA"/>
</g>
</g>
<defs>
<clipPath id="clip0_508_3002">
<rect width="24" height="24" fill="white"/>
</clipPath>
<clipPath id="clip1_508_3002">
<rect width="24" height="24" fill="white"/>
</clipPath>
</defs>
</svg>
