<svg width="17" height="18" viewBox="0 0 17 18" fill="none" xmlns="http://www.w3.org/2000/svg">
<path d="M16.1099 13.5941L14.9247 6.88519C14.6793 5.49659 13.4778 4.48875 12.0677 4.48875H10.3909C10.6444 4.12838 10.7939 3.68978 10.7939 3.21666C10.7939 1.99441 9.79948 1 8.57723 1C7.35498 1 6.36054 1.99441 6.36054 3.21669C6.36054 3.68981 6.51001 4.12841 6.76354 4.48878H5.08673C3.67666 4.48878 2.47513 5.49662 2.22979 6.88522L1.04454 13.5941C0.894944 14.4409 1.12613 15.3044 1.67876 15.9633C2.23141 16.6222 3.04154 17 3.90151 17H13.253C14.113 17 14.9231 16.6221 15.4757 15.9633C16.0284 15.3045 16.2595 14.4409 16.1099 13.5941ZM8.57723 1.94459C9.27866 1.94459 9.84932 2.51525 9.84932 3.21669C9.84932 3.91812 9.27863 4.48878 8.57723 4.48878C7.87582 4.48878 7.30513 3.91812 7.30513 3.21669C7.30513 2.51525 7.87579 1.94459 8.57723 1.94459ZM14.752 15.3562C14.5686 15.5754 14.3392 15.7516 14.0802 15.8725C13.8212 15.9933 13.5388 16.0557 13.253 16.0554H3.90151C3.32157 16.0554 2.77519 15.8006 2.40251 15.3562C2.02982 14.9119 1.87388 14.3295 1.97479 13.7584L3.16004 7.04956C3.32551 6.11309 4.13582 5.43334 5.08676 5.43334H12.0678C13.0188 5.43334 13.8291 6.11303 13.9945 7.0495L15.1798 13.7584C15.2806 14.3295 15.1247 14.9119 14.752 15.3562Z" fill="#6666FF" stroke="#6666FF"/>
<path d="M7.0242 10.7444L8.20773 9.52139C8.38913 9.33399 8.3842 9.03499 8.19676 8.85358C8.00929 8.67211 7.71029 8.67711 7.52888 8.86452L6.20529 10.2322V9.19296C6.20529 8.93211 5.99382 8.72064 5.73298 8.72064C5.47213 8.72064 5.26067 8.93211 5.26067 9.19296V12.2958C5.26067 12.5566 5.47213 12.7681 5.73298 12.7681C5.99382 12.7681 6.20529 12.5566 6.20529 12.2958V11.2565L7.52888 12.6242C7.57288 12.6698 7.62562 12.7061 7.68395 12.7308C7.74228 12.7555 7.805 12.7682 7.86835 12.7681C7.9866 12.7681 8.10504 12.724 8.19676 12.6352C8.3842 12.4538 8.38907 12.1548 8.20773 11.9674L7.0242 10.7444ZM11.4216 10.4056H10.7126C10.4518 10.4056 10.2403 10.617 10.2403 10.8779C10.2403 11.1387 10.4518 11.3502 10.7126 11.3502H10.9415C10.8965 11.6185 10.6627 11.8236 10.3818 11.8236C10.0688 11.8236 9.81423 11.569 9.81423 11.256V10.2329C9.81423 9.91992 10.0688 9.66533 10.3818 9.66533C10.5578 9.66533 10.721 9.74508 10.8296 9.8842C10.9901 10.0898 11.2869 10.1264 11.4925 9.96589C11.6981 9.80536 11.7347 9.50858 11.5743 9.30299C11.2854 8.93299 10.8508 8.72077 10.3818 8.72077C9.54801 8.72077 8.86967 9.39911 8.86967 10.2329V11.2561C8.86967 12.0899 9.54801 12.7682 10.3818 12.7682C11.2156 12.7682 11.8939 12.0899 11.8939 11.2561V10.878C11.8939 10.617 11.6824 10.4056 11.4216 10.4056Z" fill="#6666FF"/>
</svg>
