<svg width="24" height="24" viewBox="0 0 24 24" fill="none" xmlns="http://www.w3.org/2000/svg">
<path fill-rule="evenodd" clip-rule="evenodd" d="M12.0379 19.3388H12.0349C10.7069 19.339 9.40339 18.982 8.26086 18.3053L7.99086 18.1448L5.18437 18.8813L5.93362 16.1453L5.75737 15.8648C5.01497 14.683 4.62209 13.3153 4.62412 11.9198C4.62562 7.83227 7.95111 4.50678 12.0409 4.50678C14.0209 4.50678 15.8824 5.27928 17.2818 6.68027C17.9721 7.36771 18.5192 8.1852 18.8916 9.08544C19.2639 9.98569 19.454 10.9508 19.4508 11.925C19.4493 16.0125 16.1238 19.3388 12.0379 19.3388ZM18.3468 5.61603C17.5205 4.78422 16.5373 4.12468 15.4542 3.67563C14.3711 3.22658 13.2096 2.99694 12.0371 3.00003C7.12161 3.00003 3.11962 7.00127 3.11812 11.919C3.11737 13.491 3.52762 15.0255 4.30837 16.3778L3.04312 21L7.77111 19.7595C9.07902 20.4721 10.5447 20.8455 12.0341 20.8455H12.0379C16.9533 20.8455 20.9553 16.8443 20.9568 11.9258C20.9605 10.7537 20.7317 9.59259 20.2837 8.50955C19.8357 7.4265 19.1774 6.44303 18.3468 5.61603Z" fill="#749F82"/>
</svg>
