<svg width="24" height="24" viewBox="0 0 24 24" fill="none" xmlns="http://www.w3.org/2000/svg">
<path d="M2.80469 15.4766C2.80469 15.4766 2.94669 17.2146 2.97969 17.7626C3.02369 18.4976 3.30769 19.3186 3.78169 19.8886C4.45069 20.6966 5.23869 20.9816 6.29069 20.9836C7.52769 20.9856 16.5227 20.9856 17.7597 20.9836C18.8117 20.9816 19.5997 20.6966 20.2687 19.8886C20.7427 19.3186 21.0267 18.4976 21.0717 17.7626C21.1037 17.2146 21.2457 15.4766 21.2457 15.4766" stroke="#0774E4" stroke-width="1.5" stroke-linecap="round" stroke-linejoin="round"/>
<path d="M8.49609 5.329V4.958C8.49609 3.738 9.48409 2.75 10.7041 2.75H13.2861C14.5051 2.75 15.4941 3.738 15.4941 4.958L15.4951 5.329" stroke="#0774E4" stroke-width="1.5" stroke-linecap="round" stroke-linejoin="round"/>
<path d="M11.9951 16.6778V15.3838" stroke="#0774E4" stroke-width="1.5" stroke-linecap="round" stroke-linejoin="round"/>
<path fill-rule="evenodd" clip-rule="evenodd" d="M2.75 8.38808V11.8551C4.668 13.1201 6.966 14.0061 9.488 14.3571C9.79 13.2561 10.783 12.4491 11.99 12.4491C13.178 12.4491 14.191 13.2561 14.473 14.3671C17.005 14.0161 19.312 13.1301 21.24 11.8551V8.38808C21.24 6.69408 19.877 5.33008 18.183 5.33008H5.817C4.123 5.33008 2.75 6.69408 2.75 8.38808Z" stroke="#0774E4" stroke-width="1.5" stroke-linecap="round" stroke-linejoin="round"/>
</svg>
