<svg width="15" height="15" viewBox="0 0 15 15" fill="none" xmlns="http://www.w3.org/2000/svg">
<path fill-rule="evenodd" clip-rule="evenodd" d="M8.19016 2.61051L9.33229 4.89223C9.44423 5.11623 9.66029 5.27155 9.91084 5.30749L12.4658 5.67526C13.0971 5.7664 13.3483 6.53147 12.8914 6.96984L11.0439 8.74515C10.8623 8.91973 10.7796 9.17069 10.8226 9.41715L11.2586 11.9235C11.366 12.5435 10.7061 13.0166 10.1419 12.7232L7.85826 11.5391C7.63439 11.4229 7.36626 11.4229 7.14174 11.5391L4.85813 12.7232C4.29389 13.0166 3.634 12.5435 3.74203 11.9235L4.1774 9.41715C4.22036 9.17069 4.13771 8.91973 3.95614 8.74515L2.10855 6.96984C1.6517 6.53147 1.9029 5.7664 2.53417 5.67526L5.08916 5.30749C5.33971 5.27155 5.55642 5.11623 5.66836 4.89223L6.80984 2.61051C7.09228 2.04633 7.90772 2.04633 8.19016 2.61051Z" fill="#FFCC18" stroke="#FFCC18" stroke-linecap="round" stroke-linejoin="round"/>
</svg>
